<svg width="240" height="48" viewBox="0 0 240 48" fill="none" xmlns="http://www.w3.org/2000/svg">
<g clip-path="url(#clip0_2229_5385)">
<path d="M169.234 21.9243H166.858V14.2H169.234C169.766 14.158 170.303 14.2266 170.808 14.4018C171.313 14.5769 171.776 14.8547 172.169 15.2176C172.562 15.5806 172.876 16.0207 173.089 16.5107C173.304 17.0005 173.414 17.5295 173.414 18.0642C173.414 18.5989 173.304 19.1278 173.089 19.6177C172.876 20.1076 172.562 20.5479 172.169 20.9107C171.776 21.2737 171.313 21.5514 170.808 21.7265C170.303 21.9017 169.766 21.9703 169.234 21.9283M169.026 15.1973H168.025V20.934H169.026C170.771 20.934 172.212 20.0338 172.212 18.0642C172.212 16.0947 170.771 15.1973 169.026 15.1973Z" fill="black"/>
<path d="M175.295 21.9249V14.1997H179.458V15.21H176.465V17.5437H178.974V18.5439H176.465V20.9177H179.881V21.926L175.295 21.9249Z" fill="black"/>
<path d="M183.863 18.5346H182.699V21.9246H181.538V14.2003H183.863C184.16 14.1791 184.459 14.2194 184.741 14.3188C185.023 14.4183 185.281 14.5745 185.5 14.778C185.718 14.9815 185.892 15.2279 186.011 15.5016C186.131 15.7755 186.192 16.0709 186.192 16.3695C186.192 16.668 186.131 16.9635 186.011 17.2373C185.892 17.511 185.718 17.7574 185.5 17.9609C185.281 18.1644 185.023 18.3207 184.741 18.4201C184.459 18.5195 184.16 18.5598 183.863 18.5386M183.655 15.1975H182.699V17.5443H183.655C183.822 17.5649 183.991 17.55 184.151 17.5005C184.31 17.4509 184.459 17.368 184.584 17.257C184.71 17.1461 184.811 17.0097 184.879 16.8569C184.948 16.7041 184.984 16.5385 184.984 16.3709C184.984 16.2034 184.948 16.0378 184.879 15.885C184.811 15.7323 184.71 15.5958 184.584 15.4849C184.459 15.3739 184.31 15.291 184.151 15.2415C183.991 15.1919 183.822 15.1769 183.655 15.1975Z" fill="black"/>
<path d="M192.228 21.9261L191.394 19.9255H188.394L187.558 21.9261H186.408L189.702 14.0908H190.126L193.417 21.9261H192.228ZM190.228 17.1067C190.103 16.7968 189.994 16.4806 189.902 16.1594H189.875C189.791 16.483 189.683 16.7998 189.55 17.1067L188.785 18.9952H190.993L190.228 17.1067Z" fill="black"/>
<path d="M199.748 21.9231L197.316 18.5331H196.216V21.9231H195.056V14.1988H197.504C197.801 14.1809 198.098 14.2237 198.378 14.3245C198.658 14.4253 198.913 14.5819 199.13 14.785C199.348 14.9879 199.522 15.2329 199.642 15.5052C199.76 15.7774 199.823 16.0711 199.825 16.3684C199.836 16.7995 199.711 17.2231 199.469 17.5797C199.226 17.9361 198.877 18.2073 198.473 18.355L201.113 21.927L199.748 21.9231ZM197.303 15.192H196.219V17.5387H197.303C197.47 17.5594 197.638 17.5444 197.798 17.4949C197.958 17.4454 198.106 17.3623 198.232 17.2515C198.356 17.1405 198.457 17.0041 198.527 16.8514C198.595 16.6986 198.631 16.5329 198.631 16.3654C198.631 16.1979 198.595 16.0321 198.527 15.8794C198.457 15.7266 198.356 15.5903 198.232 15.4793C198.106 15.3684 197.958 15.2854 197.798 15.2358C197.638 15.1864 197.47 15.1714 197.303 15.192Z" fill="black"/>
<path d="M204.639 15.206V21.9249H203.46V15.206H200.979V14.1997H207.122V15.21L204.639 15.206Z" fill="black"/>
<path d="M216.182 21.9231L215.867 18.4311C215.819 17.9099 215.767 17.2447 215.747 16.6786H215.725C215.479 17.2228 215.104 17.9719 214.849 18.4671L213.06 21.9811H212.622L210.806 18.4671C210.539 17.9579 210.206 17.2667 209.944 16.6975H209.914C209.892 17.2918 209.833 17.9729 209.8 18.4311L209.498 21.9231H208.457L209.122 14.1948H209.846L211.912 18.172C212.225 18.7722 212.623 19.5615 212.878 20.1535H212.903C213.142 19.5615 213.516 18.8142 213.844 18.172L215.879 14.1948H216.61L217.301 21.9231H216.182Z" fill="black"/>
<path d="M219.236 21.9249V14.1997H223.408V15.21H220.415V17.5437H222.922V18.5439H220.415V20.9177H223.831V21.926L219.236 21.9249Z" fill="black"/>
<path d="M232.049 22.094L228.427 18.1339C227.844 17.5037 227.179 16.7264 226.644 16.0973L226.62 16.1113C226.644 16.8115 226.644 17.4667 226.644 18.0499V21.9249H225.472V14.1997H226.282L229.598 17.8328C230.046 18.333 230.749 19.1061 231.224 19.6863L231.246 19.6764C231.224 19.0761 231.224 18.4129 231.224 17.8548V14.1997H232.398V22.1021L232.049 22.094Z" fill="black"/>
<path d="M237.514 15.206V21.9249H236.339V15.206H233.856V14.1997H240V15.21L237.514 15.206Z" fill="black"/>
<path d="M168.716 34.179C168.014 34.1888 167.324 34.0103 166.716 33.6618L166.448 32.3754C167.118 32.882 167.934 33.1587 168.774 33.1646C169.634 33.1646 170.203 32.6805 170.203 31.9643C170.203 31.2971 169.793 30.8469 168.862 30.5479C167.479 30.0977 166.751 29.3225 166.751 28.2561C166.757 27.9517 166.828 27.6519 166.958 27.3764C167.088 27.101 167.274 26.8559 167.506 26.657C167.736 26.4582 168.006 26.31 168.298 26.222C168.589 26.1341 168.896 26.1084 169.199 26.1465C169.792 26.1303 170.376 26.2886 170.881 26.6017L170.652 27.5649C170.204 27.2755 169.684 27.12 169.151 27.1169C168.997 27.0981 168.842 27.111 168.694 27.1545C168.545 27.1981 168.407 27.2714 168.288 27.3701C168.169 27.4688 168.071 27.5907 168.001 27.7284C167.93 27.8661 167.89 28.0169 167.879 28.1712C167.879 28.6793 168.314 29.0915 169.127 29.3715C170.47 29.8316 171.38 30.5509 171.38 31.8582C171.38 33.2376 170.46 34.179 168.715 34.179" fill="black"/>
<path d="M175.885 27.3122V34.0382H174.71V27.3122H172.226V26.312H178.366V27.3122H175.885Z" fill="black"/>
<path d="M183.224 34.1809C182.434 34.1651 181.666 33.9165 181.016 33.4659C180.367 33.0154 179.864 32.3831 179.573 31.6483C179.281 30.9136 179.213 30.1091 179.376 29.3356C179.539 28.5622 179.928 27.8542 180.492 27.3005C181.057 26.7468 181.772 26.3721 182.549 26.2233C183.325 26.0743 184.128 26.1579 184.856 26.4636C185.586 26.7693 186.209 27.2833 186.647 27.9414C187.085 28.5994 187.319 29.3722 187.32 30.1627C187.322 30.6976 187.217 31.2275 187.012 31.7212C186.805 32.2149 186.503 32.6622 186.121 33.0369C185.738 33.4115 185.286 33.7057 184.788 33.9022C184.291 34.0987 183.76 34.1935 183.224 34.1809ZM183.224 27.1719C182.627 27.1519 182.036 27.3111 181.53 27.6289C181.022 27.9468 180.623 28.4089 180.38 28.9559C180.138 29.5027 180.065 30.1097 180.17 30.6985C180.275 31.2874 180.554 31.8313 180.971 32.2607C181.387 32.6901 181.922 32.985 182.508 33.108C183.094 33.2309 183.702 33.1759 184.256 32.9503C184.81 32.7247 185.284 32.3387 185.617 31.8419C185.951 31.345 186.127 30.7599 186.125 30.1617C186.138 29.7731 186.073 29.3857 185.933 29.023C185.792 28.6602 185.581 28.3294 185.31 28.0503C185.04 27.7711 184.715 27.5495 184.357 27.3985C183.998 27.2477 183.613 27.1705 183.224 27.1719Z" fill="black"/>
<path d="M193.402 34.0423L190.964 30.6413H189.872V34.0423H188.713V26.3121H191.165C191.461 26.2954 191.758 26.3391 192.037 26.4403C192.317 26.5416 192.572 26.6986 192.79 26.9015C193.007 27.1044 193.181 27.3492 193.301 27.6211C193.421 27.8931 193.484 28.1865 193.488 28.4837C193.499 28.9147 193.373 29.3381 193.13 29.6941C192.887 30.0501 192.538 30.3205 192.132 30.4673L194.773 34.0423H193.402ZM190.954 27.3043H189.875V29.6571H190.954C191.12 29.6777 191.29 29.6627 191.45 29.613C191.611 29.5633 191.759 29.4802 191.885 29.3689C192.011 29.2577 192.112 29.121 192.18 28.9679C192.25 28.8148 192.286 28.6487 192.286 28.4807C192.286 28.3127 192.25 28.1467 192.18 27.9936C192.112 27.8404 192.011 27.7037 191.885 27.5925C191.759 27.4812 191.611 27.3981 191.45 27.3484C191.29 27.2987 191.12 27.2837 190.954 27.3043Z" fill="black"/>
<path d="M196.041 34.0389V26.3086H200.207V27.3089H197.22V29.6506H199.726V30.659H197.22V33.0306H200.634V34.031L196.041 34.0389Z" fill="black"/>
<path d="M72.7325 13.2842C64.7221 13.2842 59.9167 18.1426 59.9167 24.1534C59.9167 30.1451 64.7181 34.9936 72.7325 34.9936C80.7468 34.9936 85.5493 30.1462 85.5493 24.1534C85.5493 18.1426 80.7479 13.2842 72.7325 13.2842ZM72.7325 32.663C68.8973 32.663 65.9815 28.8478 65.9815 24.1534C65.9815 19.459 68.8973 15.6209 72.7325 15.6209C76.5676 15.6209 79.5025 19.447 79.5025 24.1534C79.5025 28.8598 76.5786 32.663 72.7325 32.663Z" fill="black"/>
<path d="M86.6472 16.4953H95.0826V34.1005H101.435V16.4953H108.548V14.0835H86.6472V16.4953Z" fill="black"/>
<path d="M110.875 16.4953H117.991V34.1005H124.339V16.4953H132.784V14.0835H110.878L110.875 16.4953Z" fill="black"/>
<path d="M47.2773 30.5138V14.085H41.1755V31.7082C41.18 32.3452 41.4365 32.9545 41.8891 33.4029C42.3416 33.8512 42.9532 34.1023 43.5903 34.101H59.2039V31.7002H48.4847C48.1676 31.702 47.8625 31.5783 47.6363 31.3561C47.4101 31.1337 47.281 30.831 47.2773 30.5138Z" fill="black"/>
<path d="M136.236 16.4738V31.7083C136.241 32.3468 136.498 32.9575 136.952 33.4061C137.406 33.8549 138.02 34.1051 138.659 34.102H155.299V31.7313H143.567C143.407 31.7347 143.25 31.7062 143.101 31.6478C142.954 31.5895 142.818 31.5022 142.704 31.3911C142.59 31.2801 142.5 31.1475 142.438 31.001C142.375 30.8545 142.343 30.6971 142.342 30.5379V24.6452H155.111V22.3115H142.342V17.6411C142.343 17.4821 142.376 17.3252 142.439 17.179C142.501 17.033 142.592 16.9006 142.706 16.7897C142.82 16.6789 142.955 16.5915 143.102 16.5328C143.25 16.4741 143.408 16.4452 143.567 16.4477H155.299V14.0851H138.659C138.342 14.0822 138.029 14.1417 137.736 14.2603C137.443 14.3789 137.176 14.5541 136.951 14.7761C136.726 14.9981 136.547 15.2623 136.424 15.5536C136.301 15.845 136.237 16.1577 136.236 16.4738Z" fill="black"/>
<path d="M15.655 39.7181C14.3407 39.7216 13.0387 39.4645 11.8245 38.9616C10.6102 38.4587 9.50774 37.72 8.58086 36.7882L2.92518 31.1315C1.052 29.2541 0 26.7105 0 24.0585C0 21.4063 1.052 18.8627 2.92518 16.9853L8.58186 11.3296C10.4578 9.45375 13.002 8.3999 15.655 8.3999C18.3079 8.3999 20.8522 9.45375 22.728 11.3296L28.3847 16.9853C30.258 18.8628 31.31 21.4067 31.31 24.0589C31.31 26.7111 30.258 29.2549 28.3847 31.1325L22.728 36.7882C21.8014 37.72 20.699 38.4587 19.485 38.9616C18.2708 39.4645 16.9691 39.7217 15.655 39.7181ZM15.2798 13.8814C14.805 13.8709 14.333 13.9569 13.8924 14.1339C13.4518 14.311 13.0516 14.5756 12.716 14.9117C11.3047 16.3121 11.0446 18.7608 11.0746 20.5674C11.0876 21.3295 11.2747 28.1187 14.1005 31.7417C14.5087 32.2775 15.0012 32.7433 15.559 33.1211C16.2418 33.6061 17.0572 33.8694 17.8946 33.8753C18.189 33.8736 18.4825 33.8455 18.7718 33.7913C18.7858 33.7891 18.7994 33.7861 18.8129 33.7823C20.4514 33.4032 22.2379 31.8917 23.5924 29.7391C23.6544 29.6409 23.6964 29.5314 23.7158 29.4168C23.7353 29.3023 23.7317 29.185 23.7053 29.0719C23.6665 28.9012 23.578 28.7458 23.4508 28.6254C23.3236 28.5051 23.1636 28.425 22.991 28.3956C22.8184 28.3662 22.641 28.3885 22.481 28.4599C22.3212 28.5313 22.1861 28.6486 22.0928 28.7968C21.2899 30.2747 19.9966 31.4261 18.4357 32.0527C18.2592 32.0849 18.0802 32.1017 17.9006 32.1028C17.4076 32.0995 16.9285 31.9378 16.5342 31.6416C16.1371 31.3703 15.7867 31.0362 15.4969 30.6523C13.4963 28.0816 12.8872 23.0841 12.8441 20.5363C12.8092 18.4697 13.2062 16.9183 13.9625 16.1661C14.1362 15.9935 14.3437 15.8584 14.5718 15.7693C14.8001 15.6802 15.044 15.6389 15.2888 15.6479H15.4439C15.6882 15.6389 15.9318 15.6803 16.1594 15.7693C16.3871 15.8585 16.5941 15.9935 16.7672 16.1661C17.5235 16.9173 17.9207 18.4667 17.8856 20.5363C17.9222 23.3166 17.2027 26.0547 15.804 28.4577C15.6887 28.659 15.657 28.8975 15.7157 29.1219C15.7744 29.3463 15.9188 29.5386 16.1179 29.6577C16.317 29.7766 16.5548 29.8127 16.7803 29.7582C17.0058 29.7036 17.2008 29.5629 17.3234 29.3659C18.8305 26.6754 19.6316 23.6471 19.6522 20.5633C19.6831 18.7569 19.4231 16.3091 18.0107 14.9077C17.6744 14.5713 17.2734 14.3064 16.8318 14.1293C16.3903 13.9522 15.9175 13.8665 15.4418 13.8774L15.2798 13.8814ZM11.7058 31.8868H11.6588C11.4016 31.8983 11.1592 32.0099 10.9832 32.1977C10.8072 32.3855 10.7117 32.6347 10.7169 32.892C10.7221 33.1494 10.8277 33.3945 11.0112 33.5751C11.1946 33.7555 11.4414 33.8572 11.6988 33.8583H11.7398C11.9966 33.847 12.2388 33.7357 12.4148 33.5484C12.591 33.3611 12.6869 33.1125 12.6823 32.8554C12.6778 32.5984 12.573 32.3533 12.3905 32.1724C12.2078 31.9914 11.9628 31.8889 11.7058 31.8868Z" fill="black"/>
</g>
<defs>
<clipPath id="clip0_2229_5385">
<rect width="240" height="48" fill="white"/>
</clipPath>
</defs>
</svg>
