<svg width="249" height="80" viewBox="0 0 249 80" fill="none" xmlns="http://www.w3.org/2000/svg">
<g clip-path="url(#clip0_1707_1780)">
<path d="M56.5511 73.1912C47.5075 82.2696 32.7698 82.2696 23.7262 73.1912L7.07443 56.4755C-1.92133 47.4452 -1.92133 32.6028 7.07443 23.5725L23.774 6.80877C32.8176 -2.26959 47.5554 -2.26959 56.599 6.80877L73.2029 23.5725C82.2465 32.6509 82.2465 47.4452 73.2029 56.5236L56.5511 73.1912Z" fill="white"/>
<path d="M30.2816 64.5932C28.9418 64.5932 27.8891 63.5364 27.8413 62.2395C27.7934 61.5671 28.0327 60.9426 28.5112 60.4623C28.9418 59.9819 29.5639 59.6937 30.2338 59.6457C31.5736 59.5977 32.722 60.6544 32.8177 61.9994C32.8655 63.3443 31.8128 64.4971 30.473 64.5932C30.3295 64.5932 30.3295 64.5932 30.2816 64.5932Z" fill="#382F2D"/>
<path d="M39.2295 18.9132C37.8898 18.9132 36.7892 19.3455 35.9279 20.2101C34.0618 22.0835 33.0569 25.9742 33.1526 31.1618C33.2483 37.5503 34.7795 50.0871 39.7559 56.5236C40.5693 57.5803 41.4306 58.3969 42.3398 59.0213C43.2011 59.5977 44.2059 60.1741 45.7371 60.1741C46.1678 60.1741 46.5984 60.1261 47.0769 60.03C49.9479 59.3575 53.5366 56.1393 56.2162 51.8643C56.6469 51.1918 57.3168 50.8076 58.0824 50.8076C58.513 50.8076 58.8958 50.9036 59.2786 51.1438C59.7571 51.48 60.1399 51.9604 60.2356 52.5368C60.3792 53.1132 60.2835 53.6896 59.9485 54.218C56.5512 59.5977 52.1011 63.3924 47.9861 64.353C47.9861 64.353 47.9382 64.353 47.8904 64.353C47.1248 64.4971 46.407 64.5452 45.6893 64.5452C43.0575 64.5452 41.1914 63.5365 39.8516 62.6719C38.5596 61.8073 37.3156 60.6545 36.215 59.2134C29.2289 50.1831 28.7504 33.1792 28.7026 31.2579C28.6069 26.7427 29.2768 20.5944 32.8177 17.088C34.5403 15.3587 36.6935 14.4941 39.2295 14.4941H39.6602C42.1962 14.4941 44.3495 15.3587 46.0721 17.088C49.6129 20.5944 50.235 26.7427 50.1871 31.2579C50.0914 35.9652 49.2302 45.1396 44.3495 53.3053C43.9667 53.9778 43.2011 54.3621 42.4355 54.3621C42.0527 54.3621 41.622 54.266 41.2871 54.0258C40.2344 53.4014 39.8994 52.0564 40.5215 50.9997C43.9188 45.2837 45.5936 38.9433 45.7371 31.1138C45.8328 26.0222 44.828 22.1315 42.914 20.2101C42.0527 19.3455 40.9521 18.9132 39.6123 18.9132H39.2295Z" fill="#382F2D"/>
<path d="M137.396 14.8765C126.618 14.8765 120.142 21.5673 120.142 29.8241C120.142 38.0808 126.618 44.7717 137.396 44.7717C148.221 44.7717 154.697 38.0808 154.697 29.8241C154.697 21.5673 148.221 14.8765 137.396 14.8765ZM137.396 41.5923C132.244 41.5923 128.273 36.3251 128.273 29.8241C128.273 23.323 132.196 18.0558 137.396 18.0558C142.596 18.0558 146.519 23.323 146.519 29.8241C146.519 36.3251 142.596 41.5923 137.396 41.5923Z" fill="white"/>
<path d="M156.163 19.2897H167.508V43.538H176.064V19.2897H185.66V15.968H156.163V19.2897Z" fill="white"/>
<path d="M188.827 19.2897H198.376V43.538H206.932V19.2897H218.324V15.968H188.827V19.2897Z" fill="white"/>
<path d="M103.077 38.6029V15.968H94.8522V40.2638C94.8522 42.067 96.3176 43.538 98.1139 43.538H119.15V40.2638H104.732C103.834 40.2638 103.077 39.5045 103.077 38.6029Z" fill="white"/>
<path d="M223.004 19.2423V40.2638C223.004 42.067 224.47 43.538 226.266 43.538H248.672V40.2638H232.837C231.938 40.2638 231.182 39.5045 231.182 38.6029V30.536H248.436V27.3092H231.229V20.8556C231.229 19.954 231.938 19.2423 232.884 19.2423H248.672V15.968H226.266C224.47 15.968 223.004 17.439 223.004 19.2423Z" fill="white"/>
<path d="M100.714 55.0216C101.517 55.4012 102.085 55.9707 102.51 56.7299C102.936 57.4892 103.125 58.3433 103.125 59.3398C103.125 60.3363 102.936 61.2379 102.51 61.9497C102.085 62.7089 101.47 63.2309 100.714 63.658C99.9102 64.0376 99.012 64.2274 97.9248 64.2274H94.8522V54.4047H97.9248C99.012 54.4047 99.9102 54.642 100.714 55.0216ZM100.808 62.187C101.47 61.5226 101.801 60.5736 101.801 59.3398C101.801 58.106 101.47 57.157 100.808 56.4926C100.147 55.8283 99.1538 55.4487 97.9248 55.4487H96.1285V63.1835H97.9248C99.2011 63.1835 100.147 62.8513 100.808 62.187Z" fill="white"/>
<path d="M107.521 58.7229H111.113V59.7668H107.521V63.136H111.539V64.1799H106.244V54.3098H111.539V55.3537H107.521V58.7229Z" fill="white"/>
<path d="M120.568 59.3397C120 59.8617 119.15 60.1464 118.015 60.1464H116.124V64.2748H114.848V54.4521H118.015C119.102 54.4521 119.953 54.7368 120.52 55.2588C121.088 55.7808 121.371 56.4926 121.371 57.3467C121.419 58.106 121.135 58.8177 120.568 59.3397ZM119.575 58.6279C119.906 58.2958 120.095 57.8687 120.095 57.2993C120.095 56.0655 119.386 55.4961 118.015 55.4961H116.124V59.1025H118.015C118.724 59.1025 119.244 58.9601 119.575 58.6279Z" fill="white"/>
<path d="M130.211 62.0919H125.956L125.153 64.2747H123.782L127.327 54.4995H128.793L132.338 64.2747H130.967L130.211 62.0919ZM129.833 61.0479L128.084 56.0654L126.287 61.0479H129.833Z" fill="white"/>
<path d="M140.469 64.2748L138.152 60.2413H136.593V64.2748H135.316V54.4521H138.483C139.24 54.4521 139.854 54.5945 140.374 54.8317C140.894 55.069 141.272 55.4486 141.509 55.8757C141.745 56.3027 141.887 56.8247 141.887 57.3467C141.887 58.011 141.698 58.6279 141.32 59.1499C140.941 59.6719 140.327 60.0041 139.571 60.1939L142.029 64.3223H140.469V64.2748ZM136.593 59.1974H138.483C139.192 59.1974 139.712 59.0076 140.043 58.6754C140.374 58.3432 140.563 57.8687 140.563 57.2993C140.563 56.7298 140.374 56.2553 140.043 55.9231C139.712 55.591 139.192 55.4486 138.483 55.4486H136.593V59.1974Z" fill="white"/>
<path d="M151.294 54.4047V55.4487H148.599V64.2274H147.323V55.4487H144.629V54.4047H151.294Z" fill="white"/>
<path d="M164.199 54.4995V64.2747H162.923V56.967L159.708 64.2747H158.81L155.548 56.967V64.2747H154.272V54.4995H155.643L159.235 62.5664L162.828 54.4995H164.199Z" fill="white"/>
<path d="M169.068 58.7229H172.66V59.7668H169.068V63.136H173.086V64.1799H167.791V54.3098H173.086V55.3537H169.068V58.7229Z" fill="white"/>
<path d="M184.147 64.2749H182.871L177.718 56.4452V64.2749H176.442V54.4047H177.718L182.871 62.2344V54.4047H184.147V64.2749Z" fill="white"/>
<path d="M193.743 54.4047V55.4487H191.049V64.2274H189.82V55.4487H187.125V54.4047H193.743Z" fill="white"/>
<path d="M203.292 64.0377C202.772 63.8005 202.394 63.4683 202.11 63.0887C201.827 62.6616 201.685 62.1871 201.638 61.6651H203.008C203.056 62.1396 203.245 62.5192 203.576 62.8514C203.907 63.1836 204.379 63.3259 205.041 63.3259C205.656 63.3259 206.128 63.1836 206.506 62.8514C206.837 62.5667 207.026 62.1396 207.026 61.6651C207.026 61.2855 206.932 61.0007 206.696 60.7635C206.506 60.5262 206.223 60.3364 205.939 60.2415C205.608 60.0991 205.23 60.0042 204.71 59.8619C204.048 59.6721 203.528 59.5297 203.15 59.3399C202.772 59.1501 202.441 58.9128 202.158 58.5332C201.874 58.1536 201.732 57.6791 201.732 57.0622C201.732 56.5402 201.874 56.0657 202.158 55.6386C202.441 55.2115 202.819 54.9268 203.292 54.6895C203.765 54.4523 204.332 54.3574 204.994 54.3574C205.892 54.3574 206.648 54.5946 207.263 55.0692C207.83 55.5437 208.161 56.1606 208.255 56.9198H206.837C206.79 56.5402 206.601 56.208 206.223 55.9233C205.892 55.6386 205.419 55.4962 204.852 55.4962C204.332 55.4962 203.859 55.6386 203.528 55.9233C203.197 56.208 203.008 56.5876 203.008 57.1096C203.008 57.4892 203.103 57.774 203.292 57.9638C203.481 58.201 203.765 58.3434 204.048 58.4858C204.332 58.5807 204.757 58.723 205.277 58.8654C205.939 59.0552 206.459 59.1975 206.837 59.3874C207.216 59.5772 207.546 59.8144 207.83 60.194C208.114 60.5737 208.255 61.0482 208.255 61.6651C208.255 62.1396 208.114 62.6141 207.877 63.0412C207.641 63.4683 207.263 63.8005 206.743 64.0852C206.223 64.3699 205.656 64.4648 204.994 64.4648C204.379 64.3699 203.765 64.2275 203.292 64.0377Z" fill="white"/>
<path d="M217.615 54.4047V55.4487H214.921V64.2274H213.644V55.4487H210.95V54.4047H217.615Z" fill="white"/>
<path d="M222.531 63.7053C221.775 63.2783 221.208 62.6614 220.735 61.9021C220.31 61.1429 220.073 60.2887 220.073 59.2922C220.073 58.2957 220.31 57.489 220.735 56.6823C221.16 55.9231 221.775 55.3062 222.531 54.8791C223.288 54.4521 224.091 54.2148 225.037 54.2148C225.935 54.2148 226.786 54.4521 227.542 54.8791C228.298 55.3062 228.866 55.9231 229.338 56.6823C229.764 57.4416 230 58.2957 230 59.2922C230 60.2413 229.764 61.1429 229.338 61.9021C228.913 62.6614 228.298 63.2783 227.542 63.7053C226.786 64.1324 225.935 64.3697 225.037 64.3697C224.139 64.3697 223.288 64.1324 222.531 63.7053ZM226.88 62.7563C227.448 62.4241 227.873 61.997 228.157 61.3801C228.488 60.7633 228.629 60.0989 228.629 59.3397C228.629 58.533 228.488 57.8686 228.157 57.2518C227.826 56.6823 227.4 56.2078 226.88 55.8756C226.313 55.5435 225.699 55.4011 225.037 55.4011C224.328 55.4011 223.713 55.5435 223.193 55.8756C222.626 56.2078 222.2 56.6349 221.917 57.2518C221.586 57.8212 221.444 58.533 221.444 59.3397C221.444 60.0989 221.586 60.8107 221.917 61.3801C222.248 61.9496 222.673 62.4241 223.193 62.7563C223.76 63.0884 224.375 63.2308 225.037 63.2308C225.699 63.2308 226.313 63.0884 226.88 62.7563Z" fill="white"/>
<path d="M238.225 64.2748L235.909 60.2413H234.349V64.2748H233.073V54.4521H236.24C236.996 54.4521 237.611 54.5945 238.131 54.8317C238.651 55.069 239.029 55.4486 239.265 55.8757C239.502 56.3027 239.643 56.8247 239.643 57.3467C239.643 58.011 239.454 58.6279 239.076 59.1499C238.698 59.6719 238.084 60.0041 237.327 60.1939L239.785 64.3223H238.225V64.2748ZM234.349 59.1974H236.24C236.949 59.1974 237.469 59.0076 237.8 58.6754C238.131 58.3432 238.32 57.8687 238.32 57.2993C238.32 56.7298 238.131 56.2553 237.8 55.9231C237.469 55.591 236.949 55.4486 236.24 55.4486H234.349V59.1974Z" fill="white"/>
<path d="M244.276 58.7229H247.869V59.7668H244.276V63.136H248.294V64.1799H243V54.3098H248.294V55.3537H244.276V58.7229Z" fill="white"/>
</g>
<defs>
<clipPath id="clip0_1707_1780">
<rect width="248.345" height="80" fill="white" transform="translate(0.327606)"/>
</clipPath>
</defs>
</svg>
