<svg width="35" height="35" viewBox="0 0 35 35" fill="none" xmlns="http://www.w3.org/2000/svg">
<rect width="35" height="35" rx="4" fill="#F8F9FA"/>
<path d="M20.4167 25.8854C20.273 25.8861 20.1306 25.858 19.9979 25.8029C19.8651 25.7479 19.7447 25.6668 19.6438 25.5646L12.3521 18.2729C12.1473 18.0678 12.0322 17.7898 12.0322 17.5C12.0322 17.2101 12.1473 16.9321 12.3521 16.7271L19.6438 9.4354C19.8511 9.2422 20.1253 9.13702 20.4087 9.14202C20.692 9.14702 20.9624 9.2618 21.1628 9.4622C21.3632 9.66259 21.478 9.93294 21.483 10.2163C21.488 10.4997 21.3828 10.7739 21.1896 10.9812L14.6708 17.5L21.1896 24.0187C21.3944 24.2238 21.5095 24.5018 21.5095 24.7916C21.5095 25.0815 21.3944 25.3595 21.1896 25.5646C21.0886 25.6668 20.9682 25.7479 20.8355 25.8029C20.7028 25.858 20.5604 25.8861 20.4167 25.8854Z" fill="#495057"/>
</svg>
