<svg width="24" height="24" viewBox="0 0 24 24" fill="none" xmlns="http://www.w3.org/2000/svg">
<circle cx="12" cy="12" r="9" fill="white" stroke="#999999"/>
<path d="M12.5253 12L15.7461 8.16074C15.8001 8.09693 15.7547 8 15.6713 8H14.6921C14.6345 8 14.5792 8.02577 14.5412 8.06994L11.8848 11.2368L9.22832 8.06994C9.19151 8.02577 9.13629 8 9.0774 8H8.09826C8.01482 8 7.96942 8.09693 8.02341 8.16074L11.2443 12L8.02341 15.8393C8.01132 15.8535 8.00356 15.8709 8.00106 15.8894C7.99855 15.9079 8.00141 15.9267 8.00929 15.9436C8.01717 15.9606 8.02974 15.9749 8.04551 15.9849C8.06128 15.9948 8.07959 16.0001 8.09826 16H9.0774C9.13507 16 9.19028 15.9742 9.22832 15.9301L11.8848 12.7632L14.5412 15.9301C14.578 15.9742 14.6332 16 14.6921 16H15.6713C15.7547 16 15.8001 15.9031 15.7461 15.8393L12.5253 12Z" fill="#382F2D"/>
</svg>
