<svg xmlns="http://www.w3.org/2000/svg" width="280" viewBox="0 0 210 47.25" height="63" version="1.0"><path d="M57.018 31.838c-.262.094-1.059.234-2.39.422-1.325.18-2.434.324-3.329.437-.887.106-1.344.157-1.375.157a25 25 0 01-.125-.844c-.074-.469-1-.703-2.781-.703-2.055 0-3.25.203-3.594.609-.137.188-.266.383-.39.578-.188-.008-.344-.015-.47-.015a37.674 37.674 0 00-1.968-.079c-.043-.175-.219-.941-.531-2.296-.305-1.364-.454-2.086-.454-2.172.102-.22.508-.664 1.22-1.344.644-.602 1.296-1.223 1.952-1.86.664-.632 1-1.039 1-1.218 0-.102-.297-.692-.89-1.766-.594-1.07-.89-1.719-.89-1.937.1-.258.468-.782 1.093-1.563.562-.676 1.129-1.363 1.703-2.062.57-.707.86-1.141.86-1.297 0-.176-.11-.516-.329-1.016-.21-.5-.375-.937-.5-1.312.383-.07 1.457-.176 3.219-.313 1.758-.144 2.863-.219 3.312-.219zm-12.532-16.89c-.187.386-.625 1.007-1.312 1.859-.762.906-1.512 1.804-2.25 2.687 0 .387.195.969.594 1.75.406.774.816 1.555 1.234 2.344-.156.312-.57.75-1.234 1.312-.594.48-1.188.965-1.782 1.454-.625.53-.98.937-1.062 1.218 0 .086.172.899.516 2.438.175.812.359 1.625.546 2.437-.167.024-.789.09-1.859.203-1.074.106-1.766.157-2.078.157a.94.94 0 01-.234-.016c.218-.414.812-2.16 1.78-5.234.75-2.375 1.645-5.29 2.688-8.75.602-2.032 1.211-4.067 1.828-6.11.333 0 .57-.008.72-.031.53-.082.878-.125 1.046-.125.227.344.426.758.594 1.234.176.47.265.86.265 1.172zm-1.093-.36c0-.375-.184-.563-.547-.563-.356 0-.531.188-.531.563 0 .387.175.578.53.578.364 0 .548-.191.548-.578zM48.08 25.65l-1.312-6.203a43.19 43.19 0 01-.282.907c-.085.28-.214.804-.39 1.562-.293 1.219-.57 2.465-.828 3.734zm-6.953-2.593c0-.395-.18-.594-.531-.594-.2 0-.336.043-.406.125-.063.086-.094.242-.094.469 0 .355.164.53.5.53.351 0 .531-.175.531-.53zm-2.86 7.687c0-.383-.202-.578-.609-.578-.343 0-.515.195-.515.578 0 .375.172.563.515.563.407 0 .61-.188.61-.563zm38.555-5.5c0 2.293-.469 4.09-1.406 5.39-1.149 1.587-2.922 2.376-5.328 2.376-.586 0-1.657-.074-3.219-.219-.719-.07-1.324-.11-1.813-.11-.543 0-.98.012-1.312.032-.336.023-.813.09-1.438.203a48.271 48.271 0 011.688-3.14c-.406-.844-.793-1.633-1.156-2.376a27.594 27.594 0 01-.719-1.562 56.47 56.47 0 00.953-1.547c.332-.55.617-1.11.86-1.672-.086-.226-.516-1.305-1.297-3.234-.243-.602-.36-.93-.36-.985.25-.445.442-.796.578-1.046.438-.801.735-1.391.891-1.766a26.664 26.664 0 00-.516-1.734 59.157 59.157 0 00-.765-2.016 91.804 91.804 0 002.36-.438 20.992 20.992 0 002.14-.53c-.325 2.21-.485 4.21-.485 6 0 .53.07.898.22 1.093.144.187.39.281.733.281.227 0 .52-.023.875-.078.946-.156 1.633-.234 2.063-.234.426 0 .852.043 1.281.125.438.074.89.195 1.36.359 1.3.512 2.273 1.414 2.921 2.703.594 1.149.891 2.524.891 4.125zm-13.875-2.672a119.01 119.01 0 00-1.11 1.719c-.312.512-.57.938-.765 1.281a25.07 25.07 0 011.14 2.547c.22.555.438 1.094.657 1.625-.281.68-.547 1.305-.797 1.875-.2.45-.355.781-.469 1-.105.055-.351.133-.734.235-.375.101-.766.18-1.172.234l.063-21.281h1.468c.282.668.473 1.132.578 1.39.313.73.602 1.516.875 2.36l-1.265 2.859zm-1.281-7.703c0-.375-.149-.562-.438-.562-.218 0-.367.043-.437.125-.063.086-.094.23-.094.437 0 .156.031.262.094.313.07.054.219.078.437.078a.908.908 0 00.313-.047c.082-.04.125-.156.125-.344zm8.578 10.469c0-.55-.266-.961-.797-1.234-.418-.22-.914-.329-1.484-.329-.555 0-.899.04-1.032.11-.125.074-.187.281-.187.625v.437c0 .149.008.305.031.469 0 .137-.008.277-.015.422a4.532 4.532 0 00-.016.39c0 .438.07.743.219.907.175.23.539.344 1.093.344.602 0 1.102-.16 1.5-.485.457-.375.688-.926.688-1.656zm-8.375-3.172c0-.187-.008-.297-.016-.328-.043-.113-.18-.172-.406-.172-.355 0-.531.168-.531.5 0 .242.039.375.125.406.082.032.219.047.406.047.195 0 .316-.02.36-.062.039-.051.062-.18.062-.391zm-.234 7.422c0-.219-.04-.363-.11-.438-.062-.082-.199-.125-.406-.125-.356 0-.531.188-.531.563 0 .187.031.308.093.36.07.042.22.062.438.062.227 0 .367-.02.422-.063.062-.039.094-.16.094-.36zm34.69-4.391c0 2.68-.968 4.727-2.906 6.14-1.699 1.25-3.906 1.876-6.625 1.876-2.273 0-4.21-.785-5.812-2.36-1.594-1.57-2.39-3.41-2.39-5.515 0-2.438.898-4.395 2.702-5.875 1.739-1.426 3.957-2.14 6.656-2.14 2.344 0 4.29.671 5.844 2.015 1.688 1.469 2.531 3.422 2.531 5.86zm-2.109-2.187c0-.29-.152-.438-.453-.438-.375 0-.563.149-.563.438 0 .324.188.484.563.484.3 0 .453-.16.453-.484zm-6.266-4.203c0-.364-.164-.547-.484-.547a.511.511 0 00-.36.172.51.51 0 00-.156.375c0 .168.047.277.141.328a.743.743 0 00.375.078c.176 0 .3-.024.375-.078.07-.051.11-.16.11-.328zm4.688 10.968c0-.332-.172-.5-.516-.5-.324 0-.484.168-.484.5 0 .325.16.485.484.485.344 0 .516-.16.516-.485zm1.11-2.593a108.79 108.79 0 00-1.204-1.86c-.031-.05-.36-.5-.984-1.343.164-.852.285-1.645.36-2.375.081-.739.124-1.547.124-2.422-.48.117-1.594.476-3.344 1.078-.574.187-1.027.281-1.359.281-.012 0-.371-.207-1.078-.625-.531-.32-1.195-.64-1.984-.953-.188.492-.403 1.293-.641 2.406-.148.68-.328 1.094-.547 1.25-.117.086-.64.32-1.578.703-.93.387-1.57.672-1.922.86.707.511 1.29.945 1.75 1.297a81.2 81.2 0 001.625 1.28c0 .25-.055.93-.156 2.032a18.494 18.494 0 00-.078 1.625c.406-.05 1.078-.238 2.015-.562.438-.157.735-.235.891-.235.082 0 .328.125.734.375 1.082.7 1.973 1.262 2.672 1.688.176-.332.38-.868.61-1.61.125-.426.254-.847.39-1.265.332-.164.664-.32 1-.47a89.325 89.325 0 012.703-1.155zm-11.282-6.266c0-.187-.043-.32-.125-.406a.403.403 0 00-.312-.125c-.375 0-.563.18-.563.531 0 .324.188.484.563.484.289 0 .437-.16.437-.484zm3.719 10.547c0-.352-.172-.531-.516-.531-.367 0-.547.18-.547.53 0 .306.18.454.547.454.344 0 .516-.148.516-.453zm-4.844-3.734a.511.511 0 00-.156-.391.473.473 0 00-.36-.156c-.343 0-.515.183-.515.547 0 .28.172.421.515.421a.666.666 0 00.375-.093c.094-.063.141-.172.141-.328zm11.266-.641c0 .21-.453.414-1.36.61-.554.124-.98.28-1.28.468-.5.293-.782.914-.845 1.86-.03.398-.132.593-.297.593a98.242 98.242 0 01-1.687-1.078c-.531-.344-.984-.516-1.36-.516-.117 0-.523.075-1.218.22l-1 .234c.02-.165.094-.97.219-2.407.007-.218.035-.504.078-.86a6.039 6.039 0 00-.813-.546 50.34 50.34 0 01-1.953-1.172c.102-.207.445-.453 1.031-.734a192.35 192.35 0 002.032-1.016c.093-.562.171-1.004.234-1.328.113-.539.266-1.082.453-1.625.383.305.774.602 1.172.89a9.98 9.98 0 001.266.829c.507-.219 1.328-.508 2.453-.875.383-.125.926-.297 1.625-.516.031.117.047.227.047.328 0 .45-.133 1.219-.391 2.313-.168.68-.273 1.136-.313 1.375.477.594.852 1.07 1.125 1.422.52.68.782 1.187.782 1.53zm-2.563-1.844c0-.695-.164-1.273-.484-1.734-.43-.594-1.086-.89-1.969-.89-.625 0-1.164.257-1.61.765a2.58 2.58 0 00-.656 1.75c0 .742.208 1.36.625 1.86.426.491 1.02.734 1.782.734.695 0 1.254-.223 1.672-.672.425-.446.64-1.051.64-1.813zm22.438-2.078a492.64 492.64 0 00-1.547 1.672 9 9 0 01-1.219 1.047 23.174 23.174 0 00-.14 2.203v1.656a99.59 99.59 0 01-1.547-.484 15.967 15.967 0 01-1.578-.547c-.47.25-.985.476-1.547.672-.563.199-1.09.36-1.578.484l-.11-3.219c0-.257-.465-.882-1.39-1.875-.637-.687-1.012-1.109-1.125-1.265.675-.875 1.328-2.11 1.953-3.703-.211-.364-.407-.707-.594-1.032-.324-.52-.54-.867-.64-1.046a7.88 7.88 0 002.046-.25 290.58 290.58 0 011.922-.532V21.4c0 .22-.008.563-.016 1.032-.011.46-.015.804-.015 1.03 0 1.063.086 1.829.265 2.298.258.68.75 1.015 1.47 1.015.632 0 1.097-.289 1.39-.875.207-.445.312-1.066.312-1.859a7.92 7.92 0 00-.062-.984 17.266 17.266 0 00-.125-.953v-5.157c1.008.188 1.77.36 2.281.516.52.156.781.277.781.36a38.301 38.301 0 01-.812 1.343c-.211.324-.465.7-.766 1.125.25.305.692.824 1.328 1.563.477.523.832.96 1.063 1.312zm3.078 2.719c0 2.531-.961 4.445-2.875 5.734-1.586 1.063-3.59 1.594-6.016 1.594-1.562 0-3.101-.426-4.609-1.281-1.281-.727-2.148-1.5-2.594-2.313-.043 0-.14-.156-.297-.469-.218-.445-.402-1.007-.547-1.687-.21-.957-.312-2.016-.312-3.172 0-.82-.008-1.883-.016-3.187a362.656 362.656 0 01-.015-3.22h2.031l.781.891c.27.313.485.641.64.985l-2.187 3.937c.051.063.508.555 1.375 1.469.446.469.914 1.055 1.407 1.75.039.273.148 1.2.328 2.781.062.45.125.938.187 1.469a41.427 41.427 0 003.797-1.547c.375.094.957.297 1.75.61.957.375 1.602.609 1.938.703 0-.145.015-.633.046-1.47.04-.843.063-1.78.063-2.812a30.11 30.11 0 001.672-1.64c.187-.188.676-.692 1.469-1.516a119.466 119.466 0 01-1.563-2.062c-.586-.813-.875-1.352-.875-1.625.125-.196.242-.368.36-.516.269-.375.687-.914 1.25-1.625h2.812zm-1.422-6.39c0-.352-.187-.532-.562-.532-.188 0-.313.043-.375.125-.063.086-.094.219-.094.406 0 .188.031.336.094.438.062.105.187.156.375.156.175 0 .312-.05.406-.156a.63.63 0 00.156-.438zm-.719 8.187c0-.352-.195-.532-.578-.532-.336 0-.5.18-.5.532 0 .398.164.593.5.593.383 0 .578-.195.578-.593zm-13.172-7.922c0-.383-.183-.578-.546-.578-.325 0-.485.195-.485.578 0 .355.16.531.485.531.363 0 .546-.176.546-.531zm6.891 12.015c0-.332-.168-.5-.5-.5-.43 0-.64.168-.64.5 0 .375.21.563.64.563.332 0 .5-.188.5-.563zm-6.312-4.546c0-.333-.204-.5-.61-.5-.367 0-.547.167-.547.5 0 .375.18.562.547.562.406 0 .61-.187.61-.562zm29.897-9.891c-.093.492-.187.98-.281 1.469a265.149 265.149 0 01-.531 2.797c-.211 1.011-.336 1.546-.375 1.609l-2.297.016v8.875a27.12 27.12 0 01-1.516.468c-.449.117-1.086.262-1.906.438.313-.645.54-1.14.688-1.485.468-1.039.703-1.648.703-1.828 0-.093-.29-.508-.86-1.25-.574-.75-.86-1.203-.86-1.36 0-.03.286-.628.86-1.796.57-1.176.86-1.895.86-2.156 0-.25-.34-.832-1.016-1.75-.68-.914-1.016-1.446-1.016-1.594.32-.8.563-1.398.72-1.797.5-1.238.75-1.867.75-1.89 0-.157-.173-.743-.516-1.766-.118-.332-.356-1.016-.72-2.047.665-.176 1.29-.305 1.876-.39.812-.145 1.484-.27 2.015-.376l-.062 5.813c.32 0 .656.012 1 .031.344.012.719.024 1.125.031.363 0 .816-.02 1.36-.062zm-6.562 6.094c0 .242-.18.734-.531 1.484-.344.75-.7 1.508-1.063 2.266 0 .156.258.601.781 1.328.52.73.782 1.226.782 1.484-.18.356-.329.652-.454.89a70.87 70.87 0 01-1.14 2.126c-.469.113-.89.203-1.266.265-.375.07-.75.145-1.125.22v-10.33h-1.765l-.61-5.656 2.375.031v-4.5c.25-.125.649-.227 1.203-.312.563-.094.875-.157.938-.188.101.25.285.64.547 1.172.437.875.707 1.562.812 2.062 0 .063-.234.696-.703 1.891-.469 1.188-.703 1.809-.703 1.86 0 .292.316.953.953 1.984.645 1.031.969 1.672.969 1.922zm-1.547-7.688c0-.383-.188-.578-.563-.578-.343 0-.515.195-.515.578 0 .313.172.469.515.469.196 0 .336-.031.422-.094.094-.07.14-.195.14-.375zm0 7.688c0-.375-.188-.563-.563-.563-.367 0-.546.188-.546.563 0 .367.18.547.546.547.375 0 .563-.18.563-.547zm0 6.265c0-.394-.188-.593-.563-.593-.367 0-.546.199-.546.593 0 .375.18.563.546.563.375 0 .563-.188.563-.563zm37.243-3.484c0 1.062-.289 2.086-.859 3.062-.656 1.149-1.637 2.063-2.937 2.75-1.512.805-3.329 1.204-5.454 1.204-1.617 0-2.78-.075-3.5-.22-1.23-.25-2.351-.804-3.359-1.671.082-.188.379-.672.89-1.453.52-.79.864-1.367 1.032-1.735-.086-.238-.527-.89-1.328-1.953-.492-.656-.828-1.144-1.016-1.468.364-.57.68-1.036.953-1.391.407-.55.864-1.125 1.375-1.719-.53-.914-1.023-1.625-1.468-2.125-.438-.5-.86-.976-1.266-1.437a128.08 128.08 0 012.266-5.016.66.66 0 00-.157-.547 12.945 12.945 0 01-.53-.578c.132.043.331.063.593.063.226 0 .555-.02.984-.063.946-.102 1.535-.156 1.766-.156 0 1.148.02 2.32.062 3.515.051 1.188.098 2.383.141 3.579.05 1.199.078 2.39.078 3.578v1c0 1.398.176 2.32.531 2.765.313.387.817.578 1.516.578.926 0 1.539-.336 1.844-1.015.226-.489.343-1.332.343-2.531 0-.196-.007-.395-.015-.594v-.797c0-1.438-.016-2.645-.047-3.625-.023-.988-.055-2.094-.094-3.313a129.699 129.699 0 01-.047-3.296c.633.062 1.453.195 2.453.39 1 .188 1.805.32 2.422.39 1 .15 1.883.22 2.657.22 0 1.824.007 3.417.03 4.78.032 1.356.063 2.876.095 4.563.03 1.688.046 3.11.046 4.266zm-14.953 2.016c-.199.417-.574.953-1.125 1.609-.261.305-.527.605-.797.906-.906-1.07-1.468-2.094-1.687-3.062-.375-1.563-.563-4.598-.563-9.11v-6.031c.415 0 .829-.039 1.235-.125.406-.094.797-.187 1.172-.281.207.156.422.344.64.562.227.219.426.407.594.563-.137.187-.402.695-.797 1.515a175.532 175.532 0 00-1.562 3.235c.238.449.625 1.043 1.156 1.781.332.45.773 1.023 1.328 1.719-.086.136-.48.726-1.187 1.765-.5.743-.75 1.168-.75 1.282 0 .168.242.617.734 1.343.539.782 1.078 1.559 1.61 2.329zm-2.14-14c0-.395-.188-.594-.563-.594-.344 0-.515.199-.515.594 0 .21.05.34.156.39a.75.75 0 00.36.078c.374 0 .562-.156.562-.468zm.375 7.078c0-.383-.196-.578-.578-.578-.368 0-.547.195-.547.578 0 .355.18.53.547.53.382 0 .578-.175.578-.53zm.297 6.625c0-.407-.188-.61-.563-.61-.398 0-.594.203-.594.61 0 .336.196.5.594.5.375 0 .563-.164.563-.5zm28.058-9.828c-.594.386-1.184.765-1.766 1.14-.855.563-1.34.934-1.453 1.11.133.554.25.964.344 1.234.164.523.348.95.547 1.281-.48.524-.914.938-1.297 1.25-.375.305-.758.61-1.14.922.28 1.012.515 1.852.702 2.516.227.812.36 1.312.391 1.5-.074.03-.637.359-1.687.984-.805.461-1.434.855-1.891 1.188a16.68 16.68 0 00-.328.75 7.744 7.744 0 01-.406.718 12.462 12.462 0 01-.938-.875 5.868 5.868 0 01-.61-.734c.75-.664 1.235-1.125 1.454-1.375.644-.727 1.312-1.711 2-2.953.258-.469.437-.895.531-1.281.102-.383.156-.758.156-1.125 0-.27-.043-.633-.125-1.094a7.043 7.043 0 01-.11-1.031c0-1.063.259-2.051.782-2.97.395-.675.961-1.347 1.703-2.015.508-.426 1.032-.86 1.563-1.297.332.367.672.73 1.015 1.094.227.305.414.656.563 1.063zm1.953 2.406c-.617.68-1.227 1.355-1.828 2.031-.406.742-.61 1.672-.61 2.797 0 .344.016.758.047 1.234.032.469.047.782.047.938 0 1.043-.328 2.078-.984 3.11-.48.773-1.184 1.593-2.11 2.468-.656.601-1.308 1.203-1.953 1.797a4.52 4.52 0 01-.859-.61 8.718 8.718 0 01-.797-.859c.113-.418.188-.672.219-.766.125-.425.254-.757.39-1a129.23 129.23 0 002.016-1.234c.488-.312 1.02-.676 1.594-1.094l-.828-3.937a79.4 79.4 0 011.172-1.125c.238-.227.554-.531.953-.906a25.308 25.308 0 00-.469-1.672c-.2-.688-.312-1.067-.344-1.141a28.068 28.068 0 001.344-.781c.55-.352 1.023-.711 1.422-1.078l.531.656a9.93 9.93 0 001.047 1.172zm-2.969-2.906c0-.383-.187-.579-.562-.579-.367 0-.547.196-.547.579 0 .335.18.5.547.5.375 0 .562-.165.562-.5zm-2.343 4.562c0-.383-.215-.578-.641-.578-.313 0-.469.195-.469.578 0 .344.156.516.469.516.426 0 .64-.172.64-.516zm-1.204 5.922c0-.383-.171-.578-.515-.578-.367 0-.547.195-.547.578 0 .355.18.531.547.531.344 0 .515-.176.515-.531zm0 0" fill="#ed7833"/></svg>