<svg xmlns="http://www.w3.org/2000/svg" width="280" viewBox="0 0 210 47.25" height="63" version="1.0"><path d="M39.262 14.62c.02.093.004.25-.047.468l-.11.547c-.148.219-.289.437-.421.656-.2.469-.414 1.164-.64 2.078-.513.031-1.028.059-1.548.078-1.18.157-2.117.48-2.812.969-1 .7-1.5 1.715-1.5 3.047 0 1.437.437 2.578 1.312 3.422.79.773 1.766 1.156 2.922 1.156.488 0 .988-.094 1.5-.281h.703c.051.398.117.883.203 1.453.145.812.22 1.484.22 2.016h-.517c-.062-.02-.558-.301-1.484-.844-.93-.551-1.578-.922-1.953-1.11-.305.043-1.047.215-2.234.516-1.032.262-1.704.39-2.016.39 0-.632.004-1.218.016-1.75.02-.53.039-1.007.062-1.437a2.488 2.488 0 01-.016-.234c-.043-.188-.617-.707-1.718-1.563-1.094-.851-1.64-1.332-1.64-1.437.124-.133.75-.664 1.874-1.594.54-.437.961-.836 1.266-1.203.144-1.113.285-2.078.422-2.89.132-.813.203-1.395.203-1.75.52.136 1.41.445 2.672.921a55.43 55.43 0 011.656.61c1.195-.739 2.406-1.485 3.625-2.235zm.687-1.813a8.806 8.806 0 00-.28.562 3.243 3.243 0 00-.095.375c-.46-.039-1.043.188-1.75.688-.699.492-1.402.992-2.11 1.5a91.414 91.414 0 00-3.28-1.22c-.813-.288-1.371-.437-1.672-.437-.387 1.844-.778 3.688-1.172 5.532a17.558 17.558 0 01-1.844 1.672c-.586.468-.996.851-1.234 1.14.851.95 1.32 1.465 1.406 1.547.508.543 1.258 1.215 2.25 2.016-.031.23-.047.418-.047.562a41.369 41.369 0 00-.094 2.328c0 .45.016.824.047 1.125.082 0 .754-.117 2.016-.36 1.258-.237 2.148-.425 2.672-.562.926.637 1.68 1.133 2.265 1.485.594.344 1.102.578 1.532.703h.312c.258 0 .442-.024.547-.078v.719c-.45.417-1.059.714-1.828.89-.762.176-1.664.266-2.703.266-2.805 0-5.133-1.078-6.985-3.235-1.843-2.156-2.765-4.796-2.765-7.921 0-2.852 1.07-5.29 3.219-7.313 2.101-1.969 4.601-2.953 7.5-2.953.843 0 1.53.043 2.062.125.988.148 1.664.43 2.031.844zm-3.343.75c0-.344-.2-.516-.594-.516-.336 0-.5.172-.5.516 0 .355.164.53.5.53.394 0 .594-.175.594-.53zm-7.954 4.703c0-.395-.199-.594-.593-.594-.368 0-.547.2-.547.594 0 .367.18.547.547.547.394 0 .593-.18.593-.547zm6.594 12.719c0-.375-.183-.563-.547-.563-.355 0-.53.188-.53.563 0 .343.175.515.53.515.364 0 .547-.172.547-.515zm-6.437-4.22c0-.382-.18-.577-.532-.577-.398 0-.593.195-.593.578 0 .312.195.469.593.469.352 0 .532-.157.532-.47zm30.585-1.562c0 2.68-.969 4.727-2.906 6.14-1.7 1.25-3.906 1.876-6.625 1.876-2.273 0-4.211-.785-5.813-2.36-1.593-1.57-2.39-3.41-2.39-5.515 0-2.438.898-4.395 2.703-5.875 1.738-1.426 3.957-2.14 6.656-2.14 2.344 0 4.29.671 5.844 2.015 1.687 1.469 2.531 3.422 2.531 5.86zm-2.11-2.187c0-.29-.152-.438-.452-.438-.375 0-.563.149-.563.438 0 .324.188.484.563.484.3 0 .453-.16.453-.484zm-6.265-4.203c0-.364-.164-.547-.484-.547a.511.511 0 00-.36.172.51.51 0 00-.156.375c0 .168.047.277.14.328a.743.743 0 00.376.078c.176 0 .3-.024.375-.078.07-.051.11-.16.11-.328zm4.688 10.968c0-.332-.172-.5-.516-.5-.324 0-.484.168-.484.5 0 .325.16.485.484.485.344 0 .516-.16.516-.485zm1.11-2.593c-.563-.883-.966-1.504-1.204-1.86-.031-.05-.36-.5-.984-1.343.164-.852.285-1.645.359-2.375.082-.739.125-1.547.125-2.422-.48.117-1.594.476-3.344 1.078-.574.187-1.027.281-1.36.281-.01 0-.37-.207-1.077-.625-.532-.32-1.196-.64-1.985-.953-.187.492-.402 1.293-.64 2.406-.149.68-.328 1.094-.547 1.25-.117.086-.64.32-1.578.703-.93.387-1.57.672-1.922.86a83.56 83.56 0 011.75 1.297 81.2 81.2 0 001.625 1.28c0 .25-.055.93-.156 2.032a18.494 18.494 0 00-.079 1.625c.407-.05 1.079-.238 2.016-.562.438-.157.734-.235.89-.235.083 0 .329.125.735.375 1.082.7 1.973 1.262 2.672 1.688.176-.332.379-.868.61-1.61.124-.426.253-.847.39-1.265.332-.164.664-.32 1-.47a89.325 89.325 0 012.703-1.155zm-11.282-6.266c0-.187-.043-.32-.125-.406a.403.403 0 00-.313-.125c-.375 0-.562.18-.562.531 0 .324.187.484.562.484.29 0 .438-.16.438-.484zm3.719 10.547c0-.352-.172-.531-.516-.531-.367 0-.547.18-.547.53 0 .306.18.454.547.454.344 0 .516-.148.516-.453zm-4.844-3.734a.511.511 0 00-.156-.391.473.473 0 00-.36-.156c-.344 0-.515.183-.515.547 0 .28.171.421.515.421a.666.666 0 00.375-.093c.094-.063.14-.172.14-.328zm11.265-.641c0 .21-.453.414-1.359.61-.555.124-.98.28-1.281.468-.5.293-.781.914-.844 1.86-.031.398-.133.593-.297.593a98.242 98.242 0 01-1.687-1.078c-.532-.344-.985-.516-1.36-.516-.117 0-.523.075-1.218.22l-1 .234c.02-.165.093-.97.218-2.407.008-.218.035-.504.078-.86a6.039 6.039 0 00-.812-.546 50.34 50.34 0 01-1.953-1.172c.101-.207.445-.453 1.031-.734.676-.332 1.352-.672 2.031-1.016.094-.562.172-1.004.235-1.328a13.34 13.34 0 01.453-1.625 31.1 31.1 0 001.172.89c.457.344.879.622 1.265.829.508-.219 1.328-.508 2.453-.875.383-.125.926-.297 1.625-.516.032.117.047.227.047.328 0 .45-.132 1.219-.39 2.313-.168.68-.274 1.136-.313 1.375.477.594.852 1.07 1.125 1.422.52.68.781 1.187.781 1.53zm-2.562-1.844c0-.695-.164-1.273-.484-1.734-.43-.594-1.086-.89-1.97-.89-.624 0-1.163.257-1.609.765a2.58 2.58 0 00-.656 1.75c0 .742.207 1.36.625 1.86.426.491 1.02.734 1.781.734.696 0 1.254-.223 1.672-.672.426-.446.64-1.051.64-1.813zm24.625 7.453a4.544 4.544 0 01-.844.094c-.18 0-.293-.008-.343-.031a.354.354 0 01-.094-.094c-.555 0-1.39.117-2.516.344-.543.113-1.086.234-1.625.36h-1.344v-8.876c0-.426-.18-.785-.53-1.078-.345-.289-.7-.437-1.063-.437-.5 0-.871.195-1.11.578-.242.386-.36.98-.36 1.78v7.282c-.312 0-.929.031-1.843.094-.906.062-1.515.133-1.828.203a34.162 34.162 0 01-.469-1.14c-.168-.407-.25-.66-.25-.766 0-.082.422-.625 1.266-1.625.57-.676.957-1.16 1.156-1.453l-2.125-3.047c.113-.188.457-.977 1.031-2.375.188-.446.461-1.114.829-2 0-.102-.262-.563-.782-1.375a96.91 96.91 0 00-.781-1.219c.844-.094 1.52-.195 2.031-.312.52-.114 1.032-.235 1.532-.36l.078.485c.675-.114 1.351-.227 2.03-.344.833-.145 1.567-.219 2.204-.219 1.445 0 2.742.453 3.89 1.36 1.157.898 1.735 1.945 1.735 3.14 0 1.773.008 3.133.031 4.078.02.95.04 2.09.063 3.422.02 1.336.031 2.512.031 3.531zm-13.062-4.703c0 .242-.356.762-1.063 1.563-.7.793-1.047 1.242-1.047 1.343 0 .125.055.305.172.532.29.593.473 1.09.547 1.484-.012.031-.402.133-1.172.313-.492.125-.824.21-1 .265l-.047-15.125c.54 0 .863-.004.969-.015.101-.008.336-.067.703-.172.426.199.813.554 1.156 1.062.25.367.5.86.75 1.485-.074.167-.293.667-.656 1.5-.594 1.367-.95 2.199-1.062 2.5.125.335.363.812.718 1.437.688 1.18 1.032 1.79 1.032 1.828zm-1.47-6.969c0-.425-.198-.64-.593-.64-.336 0-.5.215-.5.64 0 .305.164.454.5.454.395 0 .594-.149.594-.454zm.173 7.094c0-.394-.196-.594-.578-.594-.344 0-.516.2-.516.594 0 .336.172.5.516.5.382 0 .578-.164.578-.5zm28.645-10.781l-.281 1.469a265.149 265.149 0 01-.531 2.797c-.211 1.011-.336 1.546-.375 1.609l-2.297.016v8.875a27.12 27.12 0 01-1.516.468c-.449.117-1.086.262-1.906.438.312-.645.539-1.14.687-1.485.47-1.039.704-1.648.704-1.828 0-.093-.29-.508-.86-1.25-.574-.75-.86-1.203-.86-1.36 0-.03.286-.628.86-1.796.57-1.176.86-1.895.86-2.156 0-.25-.34-.832-1.016-1.75-.68-.914-1.016-1.446-1.016-1.594.32-.8.563-1.398.72-1.797.5-1.238.75-1.867.75-1.89 0-.157-.173-.743-.517-1.766-.117-.332-.355-1.016-.718-2.047a16.69 16.69 0 011.875-.39c.812-.145 1.484-.27 2.015-.376l-.062 5.813c.32 0 .656.012 1 .031.344.012.719.024 1.125.031.363 0 .816-.02 1.36-.062zm-6.562 6.094c0 .242-.18.734-.532 1.484-.343.75-.699 1.508-1.062 2.266 0 .156.258.601.781 1.328.52.73.781 1.226.781 1.484-.18.356-.328.652-.453.89a70.87 70.87 0 01-1.14 2.126c-.469.113-.89.203-1.266.265-.375.07-.75.145-1.125.22v-10.33H79.68l-.609-5.656 2.375.031v-4.5c.25-.125.649-.227 1.203-.312.563-.094.875-.157.938-.188.101.25.285.64.547 1.172.437.875.707 1.562.812 2.062 0 .063-.234.696-.703 1.891-.469 1.188-.703 1.809-.703 1.86 0 .292.316.953.953 1.984.644 1.031.969 1.672.969 1.922zm-1.547-7.688c0-.383-.188-.578-.563-.578-.343 0-.515.195-.515.578 0 .313.172.469.515.469.196 0 .336-.031.422-.094.094-.07.14-.195.14-.375zm0 7.688c0-.375-.188-.563-.563-.563-.367 0-.547.188-.547.563 0 .367.18.547.547.547.375 0 .563-.18.563-.547zm0 6.265c0-.394-.188-.593-.563-.593-.367 0-.547.199-.547.593 0 .375.18.563.547.563.375 0 .563-.188.563-.563zm27.864 1.891c-1 .125-1.703.219-2.11.281a29.13 29.13 0 01-1.359.297c.176-.352.348-.71.516-1.078.07-.188.21-.524.422-1.016a13.831 13.831 0 01-.953-1.047c-.418-.5-.825-1.004-1.22-1.515.145-.25.474-.86.985-1.828.196-.375.426-.782.688-1.22-.23-.288-.469-.679-.719-1.171-.25-.5-.492-.984-.719-1.453.227-.469.555-1.149.985-2.047.28-.613.613-1.32 1-2.125l2.125-.125.015 9.61c0 1.148.114 2.624.344 4.437zm-3.313-1.516c-.187.367-.386.778-.593 1.235-.242.543-.407.87-.5.984-.094.105-.367.219-.813.344a3.37 3.37 0 00-.922.375 6.557 6.557 0 00-.28-.406c-.095-.133-.2-.204-.313-.204-.918.157-1.805.297-2.657.422-.855.125-1.445.188-1.765.188-.875 0-1.79-.274-2.735-.828a7.28 7.28 0 01-2.625-2.578c-.804-1.301-1.203-2.79-1.203-4.47 0-1.019.156-1.952.469-2.796a7.14 7.14 0 011.125-2.016c.695-.82 1.602-1.422 2.719-1.797.894-.312 1.89-.468 2.984-.468.676 0 1.27.058 1.781.172.52.105.864.218 1.032.343.039-.07.086-.191.14-.36.051-.163.082-.265.094-.296.145 0 .64-.02 1.484-.062a53.41 53.41 0 012.47-.063l-1.876 4.047c.633 1.2 1 1.902 1.094 2.11.039.116.125.288.25.515l-.5 1.11a25.67 25.67 0 01-1.016 1.843c.551.773.973 1.328 1.266 1.672.094.125.39.453.89.984zm-3.906-3.703v-.781c0-.906-.086-1.488-.25-1.75-.219-.332-.734-.5-1.547-.5-.492 0-.914.219-1.265.656-.356.43-.532.875-.532 1.344 0 .625.196 1.133.594 1.516.395.375.88.562 1.453.562.489 0 .832-.047 1.032-.14.343-.145.515-.446.515-.907zm4.5.86c0-.333.176-.5.531-.5.344 0 .516.167.516.5 0 .375-.172.562-.516.562-.355 0-.53-.187-.53-.562zm.031-6.157c0-.375.192-.562.579-.562.351 0 .53.187.53.562 0 .399-.179.594-.53.594-.387 0-.579-.195-.579-.594zm16.202 8.625c-.407.344-.7.574-.875.688-.336.18-.641.351-.922.515-.219-.132-.602-.43-1.14-.89-.4-.332-.716-.598-.954-.797-.5.125-.86.23-1.078.312-.43.157-.852.313-1.266.47a2.044 2.044 0 01-.125-.657c0-.04.02-.234.063-.578.039-.352.062-.63.062-.828-.18-.727-.402-1.348-.672-1.86-.261-.508-.703-1.203-1.328-2.078a34.453 34.453 0 011.625-.578c.395-.125.89-.258 1.485-.406.207-.332.593-.867 1.156-1.61.562-.75.914-1.242 1.062-1.484.602.313 1.051.555 1.344.719.906.492 1.36.758 1.36.797l-.36 1.484a2.21 2.21 0 00-.375-.062 3.217 3.217 0 00-.453-.032c-.887 0-1.656.274-2.312.813-.657.543-.985 1.172-.985 1.89 0 .73.317 1.293.953 1.688.508.312 1.133.469 1.875.469.563 0 .973-.086 1.235-.266.132.45.238.824.312 1.125.145.523.25.906.313 1.156zm.703 2.782a3.7 3.7 0 01-1.594.75c-.586.125-1.336.187-2.25.187-1.2 0-2.352-.227-3.453-.672-1.367-.55-2.45-1.379-3.25-2.484-.969-1.313-1.453-2.953-1.453-4.922 0-.633.113-1.352.344-2.156.457-1.602 1.242-2.91 2.359-3.922 1.539-1.395 3.625-2.094 6.25-2.094.383 0 .894.043 1.531.125.633.074 1.098.2 1.39.375-.218.523-.355.867-.405 1.031-.118.407-.172.899-.172 1.469h-.72c-.398-.219-.71-.383-.937-.5-.71-.352-1.28-.586-1.718-.703-.375.625-.746 1.18-1.11 1.656-.367.469-.797.996-1.297 1.578-.554.106-1.148.278-1.78.516-.638.23-1.231.492-1.782.781.539.856.96 1.54 1.266 2.047.414.73.75 1.387 1 1.969 0 .281-.028.703-.079 1.265-.105 1.25-.156 1.996-.156 2.235a45.8 45.8 0 001.781-.578c.633-.22 1.067-.36 1.297-.422.602.469 1.067.82 1.39 1.047.321.218.65.398.985.53.145-.07.516-.273 1.11-.608.28-.157.593-.301.937-.438.082.242.172.543.266.906.101.367.187.711.25 1.032zm-7.063-11.563c0-.375-.195-.562-.578-.562-.355 0-.531.187-.531.562 0 .344.176.516.531.516.383 0 .578-.172.578-.516zm2.453 10.86c0-.407-.199-.61-.593-.61-.375 0-.563.203-.563.61 0 .367.188.546.563.546.394 0 .593-.18.593-.547zm-4.937-4.016c0-.383-.168-.578-.5-.578-.344 0-.516.195-.516.578 0 .367.172.547.516.547.332 0 .5-.18.5-.547zm24.489-10.422l-.281 1.469a265.149 265.149 0 01-.532 2.797c-.21 1.011-.336 1.546-.375 1.609l-2.297.016v8.875a27.12 27.12 0 01-1.515.468c-.45.117-1.086.262-1.906.438.312-.645.539-1.14.687-1.485.469-1.039.703-1.648.703-1.828 0-.093-.289-.508-.86-1.25-.573-.75-.859-1.203-.859-1.36 0-.03.286-.628.86-1.796.57-1.176.86-1.895.86-2.156 0-.25-.34-.832-1.016-1.75-.68-.914-1.016-1.446-1.016-1.594.32-.8.562-1.398.719-1.797.5-1.238.75-1.867.75-1.89 0-.157-.172-.743-.516-1.766-.117-.332-.355-1.016-.719-2.047.664-.176 1.29-.305 1.875-.39.813-.145 1.485-.27 2.016-.376l-.063 5.813c.32 0 .657.012 1 .031.344.012.72.024 1.125.031.364 0 .817-.02 1.36-.062zm-6.563 6.094c0 .242-.18.734-.531 1.484-.344.75-.7 1.508-1.062 2.266 0 .156.257.601.78 1.328.52.73.782 1.226.782 1.484-.18.356-.328.652-.453.89a73.227 73.227 0 01-1.14 2.126c-.47.113-.891.203-1.266.265-.375.07-.75.145-1.125.22v-10.33h-1.766l-.61-5.656 2.376.031v-4.5c.25-.125.648-.227 1.203-.312.562-.094.875-.157.937-.188.102.25.285.64.547 1.172.438.875.707 1.562.813 2.062 0 .063-.235.696-.703 1.891-.47 1.188-.704 1.809-.704 1.86 0 .292.317.953.954 1.984.644 1.031.968 1.672.968 1.922zm-1.547-7.688c0-.383-.187-.578-.562-.578-.344 0-.516.195-.516.578 0 .313.172.469.516.469.195 0 .336-.031.422-.094.094-.07.14-.195.14-.375zm0 7.688c0-.375-.187-.563-.562-.563-.367 0-.547.188-.547.563 0 .367.18.547.547.547.375 0 .562-.18.562-.547zm0 6.265c0-.394-.187-.593-.562-.593-.367 0-.547.199-.547.593 0 .375.18.563.547.563.375 0 .562-.188.562-.563zm37.244-3.484c0 1.062-.29 2.086-.86 3.062-.656 1.149-1.636 2.063-2.937 2.75-1.512.805-3.328 1.204-5.453 1.204-1.617 0-2.781-.075-3.5-.22-1.23-.25-2.352-.804-3.36-1.671.083-.188.38-.672.891-1.453.52-.79.864-1.367 1.031-1.735-.085-.238-.527-.89-1.328-1.953-.492-.656-.828-1.144-1.015-1.468.363-.57.68-1.036.953-1.391.406-.55.863-1.125 1.375-1.719-.531-.914-1.024-1.625-1.469-2.125-.437-.5-.86-.976-1.266-1.437a128.08 128.08 0 012.266-5.016.66.66 0 00-.156-.547 12.945 12.945 0 01-.531-.578c.132.043.332.063.593.063.227 0 .555-.02.985-.063.945-.102 1.535-.156 1.765-.156 0 1.148.02 2.32.063 3.515.05 1.188.098 2.383.14 3.579.051 1.199.079 2.39.079 3.578v1c0 1.398.175 2.32.53 2.765.313.387.817.578 1.516.578.926 0 1.54-.336 1.844-1.015.227-.489.344-1.332.344-2.531 0-.196-.008-.395-.016-.594v-.797c0-1.438-.015-2.645-.047-3.625-.023-.988-.054-2.094-.093-3.313a129.699 129.699 0 01-.047-3.296c.633.062 1.453.195 2.453.39 1 .188 1.805.32 2.422.39 1 .15 1.883.22 2.656.22 0 1.824.008 3.417.031 4.78.032 1.356.063 2.876.094 4.563.031 1.688.047 3.11.047 4.266zm-14.953 2.016c-.2.417-.574.953-1.125 1.609a56.12 56.12 0 01-.797.906c-.906-1.07-1.469-2.094-1.688-3.062-.375-1.563-.562-4.598-.562-9.11v-6.031c.414 0 .828-.039 1.234-.125.407-.094.797-.187 1.172-.281.207.156.422.344.64.562.227.219.427.407.595.563-.137.187-.403.695-.797 1.515a175.532 175.532 0 00-1.563 3.235c.239.449.625 1.043 1.156 1.781.333.45.774 1.023 1.329 1.719-.086.136-.48.726-1.188 1.765-.5.743-.75 1.168-.75 1.282 0 .168.242.617.734 1.343.54.782 1.079 1.559 1.61 2.329zm-2.14-14c0-.395-.188-.594-.563-.594-.344 0-.516.199-.516.594 0 .21.05.34.156.39a.75.75 0 00.36.078c.375 0 .562-.156.562-.468zm.374 7.078c0-.383-.195-.578-.578-.578-.367 0-.547.195-.547.578 0 .355.18.53.547.53.383 0 .578-.175.578-.53zm.297 6.625c0-.407-.187-.61-.562-.61-.399 0-.594.203-.594.61 0 .336.195.5.594.5.375 0 .562-.164.562-.5zm28.058-9.828c-.593.386-1.183.765-1.765 1.14-.856.563-1.34.934-1.453 1.11.132.554.25.964.343 1.234.164.523.348.95.547 1.281-.48.524-.914.938-1.297 1.25-.375.305-.757.61-1.14.922.281 1.012.515 1.852.703 2.516.226.812.36 1.312.39 1.5-.074.03-.636.359-1.687.984-.805.461-1.434.855-1.89 1.188-.149.324-.258.574-.329.75a7.744 7.744 0 01-.406.718c-.398-.343-.71-.633-.937-.875a5.868 5.868 0 01-.61-.734c.75-.664 1.235-1.125 1.453-1.375.645-.727 1.313-1.711 2-2.953.258-.469.438-.895.532-1.281.101-.383.156-.758.156-1.125 0-.27-.043-.633-.125-1.094a7.043 7.043 0 01-.11-1.031c0-1.063.258-2.051.782-2.97.394-.675.96-1.347 1.703-2.015.508-.426 1.031-.86 1.562-1.297.332.367.672.73 1.016 1.094.226.305.414.656.562 1.063zm1.954 2.406c-.618.68-1.227 1.355-1.829 2.031-.406.742-.609 1.672-.609 2.797 0 .344.016.758.047 1.234.031.469.047.782.047.938 0 1.043-.328 2.078-.985 3.11-.48.773-1.183 1.593-2.109 2.468-.656.601-1.309 1.203-1.953 1.797a4.52 4.52 0 01-.86-.61 8.718 8.718 0 01-.796-.859c.113-.418.187-.672.218-.766.125-.425.254-.757.391-1a129.23 129.23 0 002.016-1.234c.488-.312 1.02-.676 1.593-1.094l-.828-3.937c.383-.375.774-.75 1.172-1.125.238-.227.555-.531.953-.906a25.308 25.308 0 00-.468-1.672c-.2-.688-.313-1.067-.344-1.141a28.068 28.068 0 001.344-.781c.55-.352 1.023-.711 1.421-1.078.239.293.414.511.532.656.382.492.734.883 1.047 1.172zm-2.97-2.906c0-.383-.187-.579-.562-.579-.367 0-.547.196-.547.579 0 .335.18.5.547.5.375 0 .563-.165.563-.5zm-2.343 4.562c0-.383-.215-.578-.64-.578-.313 0-.47.195-.47.578 0 .344.157.516.47.516.425 0 .64-.172.64-.516zm-1.203 5.922c0-.383-.172-.578-.516-.578-.367 0-.547.195-.547.578 0 .355.18.531.547.531.344 0 .516-.176.516-.531zm0 0" fill="#ed7833"/></svg>