<svg xmlns="http://www.w3.org/2000/svg" width="280" viewBox="0 0 210 47.25" height="63" version="1.0"><path d="M40.556 33.416l-7.563.078a67.629 67.629 0 01-.047-1.797c-.043-1.218-.086-2.55-.125-4a127.658 127.658 0 01-.062-2.656c-.242.438-.653 1.277-1.235 2.516a240.844 240.844 0 00-1.593 3.406c-.594 1.25-1.043 2.117-1.344 2.61-.824 0-1.434.003-1.828.015-1.992.062-3.008.094-3.047.094-.293-.563-.711-1.524-1.25-2.891a247.14 247.14 0 01-1.328-3.469c-.2-.562-.399-1.117-.594-1.672l-1.14 7.36h-1.188c-.387.008-.758.02-1.11.031a.668.668 0 01-.25-.031c.133-.176.282-.39.438-.64.164-.25.332-.509.5-.782-.387-.75-.906-1.598-1.563-2.547a72.775 72.775 0 01-1.03-1.531c.218-.364.921-1.172 2.109-2.422a78.308 78.308 0 001.5-1.594l-.829-1.984a31.215 31.215 0 00-1.046-2.328c.562-.77 1.128-1.551 1.703-2.344.851-1.227 1.28-1.957 1.28-2.188a26.114 26.114 0 01-.28-1.046c-.211-.696-.414-1.254-.61-1.672.758 0 1.336-.02 1.735-.063 1.218-.094 2.054-.14 2.515-.14 1.082 2.742 1.852 4.757 2.313 6.046.289.844.492 1.543.61 2.094.124.555.269 1.09.437 1.61.332-.758.691-1.61 1.078-2.547a2311.64 2311.64 0 011.36-3.297c.476-1.196.96-2.473 1.452-3.828 1.145.187 2.399.351 3.766.484 1.363.125 2.492.188 3.39.188.551 0 1.087-.032 1.61-.094zM18.946 14.65l-.672.86a78.566 78.566 0 00-1.39 1.828 37.664 37.664 0 00-1.203 1.656c.363.805.738 1.61 1.125 2.422.394.813.71 1.398.953 1.75a27.172 27.172 0 01-1.5 1.844 563.501 563.501 0 00-2.266 2.562c.156.262.484.782.984 1.563.875 1.355 1.368 2.172 1.485 2.453-.2.2-.39.402-.578.61-.242.304-.47.573-.688.812-.375.05-.945.097-1.703.14-.762.051-1.531.18-2.312.391.789-3.852 1.437-7.398 1.937-10.64.395-2.5.688-4.813.875-6.938.156-1.602.234-2.828.234-3.672.063-.07.688-.14 1.875-.203a49.23 49.23 0 011.782-.094c.195.45.398.945.61 1.485.218.53.366.921.452 1.171zm-2.094-.75c0-.382-.195-.578-.578-.578-.367 0-.547.196-.547.578 0 .356.18.532.547.532.383 0 .578-.176.578-.532zm-1.312 8.97c0-.345-.188-.516-.563-.516-.355 0-.53.171-.53.515 0 .418.175.625.53.625.375 0 .563-.207.563-.625zm-1.313 8.218c0-.395-.183-.594-.546-.594-.368 0-.547.2-.547.594 0 .2.039.336.125.406.082.063.222.094.422.094.363 0 .546-.164.546-.5zm45.997.5c-1 .125-1.703.219-2.11.281a29.13 29.13 0 01-1.359.297c.176-.352.348-.71.516-1.078.07-.188.211-.524.422-1.016a13.831 13.831 0 01-.953-1.047c-.418-.5-.824-1.004-1.219-1.515.145-.25.473-.86.984-1.828.196-.375.426-.782.688-1.22-.23-.288-.469-.679-.719-1.171-.25-.5-.492-.984-.719-1.453.227-.469.555-1.149.985-2.047.281-.613.613-1.32 1-2.125l2.125-.125.015 9.61c0 1.148.114 2.624.344 4.437zm-3.312-1.516c-.188.367-.387.778-.594 1.235-.242.543-.406.87-.5.984-.094.105-.367.219-.813.344a3.37 3.37 0 00-.921.375 6.557 6.557 0 00-.282-.406c-.093-.133-.199-.204-.312-.204-.918.157-1.805.297-2.656.422-.856.125-1.446.188-1.766.188-.875 0-1.79-.274-2.734-.828a7.28 7.28 0 01-2.625-2.578c-.805-1.301-1.204-2.79-1.204-4.47 0-1.019.157-1.952.47-2.796a7.14 7.14 0 011.124-2.016c.696-.82 1.602-1.422 2.719-1.797.895-.312 1.89-.468 2.984-.468.676 0 1.27.058 1.782.172.52.105.863.218 1.03.343.04-.07.087-.191.141-.36.051-.163.083-.265.094-.296.145 0 .64-.02 1.485-.062a53.41 53.41 0 012.468-.063l-1.875 4.047c.633 1.2 1 1.902 1.094 2.11.04.116.125.288.25.515l-.5 1.11a25.67 25.67 0 01-1.016 1.843c.551.773.973 1.328 1.266 1.672.094.125.39.453.89.984zm-3.907-3.703v-.781c0-.906-.085-1.488-.25-1.75-.218-.332-.734-.5-1.546-.5-.493 0-.914.219-1.266.656-.355.43-.531.875-.531 1.344 0 .625.195 1.133.593 1.516.395.375.88.562 1.454.562.488 0 .832-.047 1.03-.14.345-.145.516-.446.516-.907zm4.5.86c0-.333.176-.5.532-.5.343 0 .515.167.515.5 0 .375-.172.562-.515.562-.356 0-.532-.187-.532-.562zm.032-6.157c0-.375.191-.562.578-.562.351 0 .531.187.531.562 0 .399-.18.594-.531.594-.387 0-.578-.195-.578-.594zm17.67-3.734l-.282 1.469a265.149 265.149 0 01-.53 2.797c-.212 1.011-.337 1.546-.376 1.609l-2.297.016v8.875a27.12 27.12 0 01-1.515.468 48.93 48.93 0 01-1.907.438c.313-.645.54-1.14.688-1.485.469-1.039.703-1.648.703-1.828 0-.093-.289-.508-.86-1.25-.574-.75-.859-1.203-.859-1.36 0-.03.285-.628.86-1.796.57-1.176.859-1.895.859-2.156 0-.25-.34-.832-1.016-1.75-.68-.914-1.015-1.446-1.015-1.594.32-.8.562-1.398.719-1.797.5-1.238.75-1.867.75-1.89 0-.157-.172-.743-.516-1.766l-.719-2.047c.664-.176 1.29-.305 1.875-.39.813-.145 1.485-.27 2.016-.376l-.063 5.813c.32 0 .657.012 1 .031.344.012.719.024 1.125.031.364 0 .817-.02 1.36-.062zm-6.563 6.094c0 .242-.18.734-.531 1.484-.344.75-.7 1.508-1.063 2.266 0 .156.258.601.782 1.328.52.73.78 1.226.78 1.484-.179.356-.327.652-.452.89a73.227 73.227 0 01-1.14 2.126c-.47.113-.891.203-1.266.265-.375.07-.75.145-1.125.22v-10.33h-1.766l-.61-5.656 2.376.031v-4.5c.25-.125.648-.227 1.203-.312.562-.094.875-.157.937-.188.102.25.285.64.547 1.172.438.875.707 1.562.813 2.062 0 .063-.235.696-.704 1.891-.468 1.188-.703 1.809-.703 1.86 0 .292.317.953.953 1.984.645 1.031.97 1.672.97 1.922zm-1.547-7.688c0-.383-.187-.578-.562-.578-.344 0-.516.195-.516.578 0 .313.172.469.516.469.195 0 .336-.031.422-.094.093-.07.14-.195.14-.375zm0 7.688c0-.375-.187-.563-.562-.563-.367 0-.547.188-.547.563 0 .367.18.547.547.547.375 0 .562-.18.562-.547zm0 6.265c0-.394-.187-.593-.562-.593-.367 0-.547.199-.547.593 0 .375.18.563.547.563.375 0 .562-.188.562-.563zM94.899 12.76c-.656.523-1.543 1.148-2.656 1.875-1.274.855-2.387 1.554-3.344 2.094a1.63 1.63 0 01-.469-.047 15.492 15.492 0 00-.844-.22c.125-.206.27-.35.438-.437.176-.082.363-.18.562-.296.114-.532.192-.907.235-1.125.05-.227.195-.508.437-.844.72-.176 1.149-.29 1.297-.344.313-.102.711-.289 1.203-.562.157-.239.301-.508.438-.813.101-.227.238-.539.406-.937zm-2.844-2.031l-.219.734c-.074.242-.214.543-.421.906-.368.262-.954.531-1.766.813-.387.136-.766.265-1.14.39l-.438 1.813c-.274.199-.461.34-.563.422a4.55 4.55 0 01-.578.359 4.388 4.388 0 01-.953-.172 4.05 4.05 0 01-.828-.422.375.375 0 01-.125-.281c.008-.094.02-.191.031-.297l6.031-4.875c.25.125.57.328.97.61zm-1.328 1.14a.24.24 0 00.11-.203c0-.102-.07-.18-.204-.234-.074-.082-.14-.125-.203-.125-.086 0-.168.058-.25.172a.524.524 0 00-.047.203c0 .105.051.187.157.25.05.062.117.093.203.093.093 0 .172-.05.234-.156zm-3.25 2.985c.02-.114.031-.188.031-.22a.332.332 0 00-.14-.265c-.117-.062-.2-.094-.25-.094-.094 0-.168.047-.22.141a.526.526 0 00-.077.266c0 .074.047.156.14.25a.476.476 0 00.22.047c.1 0 .202-.04.296-.125zm8.531 13.109c-.011.012-.164.023-.453.031h-2.36c-.53-.008-1.023-.02-1.468-.031 0-.05-.027-.094-.078-.125-.055-.04-.078-.078-.078-.11 0-.062.347-.445 1.047-1.156.644-.656 1.11-1.11 1.39-1.36v-.265a43.498 43.498 0 00-2.125-1.593c-.742-.508-1.195-.883-1.36-1.125a31.662 31.662 0 01-1.5-2.313c-.397-.656-.683-.984-.858-.984-.586.593-1.168 1.187-1.75 1.78-.356.25-.809.376-1.36.376h-.25c-.074-.008-.133-.016-.172-.016a7.484 7.484 0 01-.984.063h-.547a7.05 7.05 0 01-.5-.016c-.5 0-.875.047-1.125.14-.25.087-.375.274-.375.563 0 .293.082.664.25 1.11.176.449.266.855.266 1.218 0 .438-.328.938-.985 1.5a64.68 64.68 0 01-1.672 1.344c.5.324 1.02.735 1.563 1.235.363.375.734.742 1.11 1.093 0 .387-.012.75-.032 1.094a110.408 110.408 0 00-.125 1.844 7 7 0 001.203-.094c.914-.145 1.52-.219 1.813-.219.03.032.5.328 1.406.89.437.282.852.579 1.25.892a6.515 6.515 0 01-.594.875l-.422.484c-.949 0-2.007-.266-3.172-.797-1.46-.648-2.632-1.531-3.515-2.656-1.117-1.395-1.672-3.031-1.672-4.906 0-2.801.832-5.008 2.5-6.625 1.582-1.54 3.64-2.313 6.172-2.313 2.656 0 4.754.594 6.297 1.781 1.133.856 1.96 2.024 2.484 3.5.227.844.457 1.688.688 2.532.03.312.05.617.062.906.02.293.031.777.031 1.453zm-3.234-2.719c-.523.617-.934 1.07-1.234 1.36-.918.906-1.579 1.359-1.985 1.359h-3.547c0 .344.332.742 1 1.187a97.85 97.85 0 002.22 1.11c-.024.156-.227.511-.61 1.062-.313.461-.625.918-.938 1.375-.187-.082-.578-.3-1.172-.656a28.13 28.13 0 00-1.61-.906c-.272 0-.608-.008-1.015-.031a15.522 15.522 0 00-.703-.047h-.28c-.137.023-.23.03-.281.03-.055-.25-.09-.612-.11-1.093a10.48 10.48 0 00-.047-.922 39.97 39.97 0 00-.718-.953c-.305-.351-.778-.781-1.422-1.281.394-.219.875-.582 1.437-1.094.57-.508.86-.844.86-1-.137-.457-.242-.805-.313-1.047-.219-.758-.328-1.238-.328-1.437 0-.196.11-.332.328-.406.219-.07.516-.11.89-.11.27 0 .63.016 1.079.047.457.031.71.047.766.047 1.175 0 2-.317 2.468-.953.383-.508.586-.774.61-.797.207.187.422.375.64.562.364.743.727 1.48 1.094 2.22 1.352 1 2.16 1.6 2.422 1.796.332.25.5.445.5.578zm-.297-4.281c0-.383-.184-.578-.547-.578-.367 0-.547.195-.547.578 0 .344.18.516.547.516.363 0 .547-.172.547-.516zm-7.36-1.469c0-.375-.171-.562-.515-.562-.367 0-.547.187-.547.562a.64.64 0 00.14.422c.095.117.227.172.407.172.164 0 .29-.055.375-.172a.64.64 0 00.14-.422zm3.391 4.766v-.766c-.125-.27-.336-.531-.625-.781-.336-.29-.652-.438-.953-.438-.531 0-1.008.18-1.422.532-.406.343-.61.828-.61 1.453zm-8.437-.203c0-.375-.184-.563-.547-.563-.375 0-.563.188-.563.563 0 .312.188.468.563.468.195 0 .336-.03.422-.093.082-.063.125-.188.125-.375zm5.5 9.734c0-.355-.18-.531-.531-.531-.368 0-.547.176-.547.531 0 .383.18.578.547.578.351 0 .53-.195.53-.578zm-5.188-3.797c0-.375-.172-.562-.515-.562-.375 0-.563.187-.563.562 0 .399.188.594.563.594.343 0 .515-.195.515-.594zm45.038-6.64a20.8 20.8 0 01-.219 2.953c-.218 1.511-.558 2.617-1.015 3.312-.719 1.137-1.656 1.996-2.813 2.578-1.336.676-2.996 1.016-4.984 1.016-1.18 0-2.45-.195-3.813-.578-1.136-.32-1.918-.739-2.343-1.25a5.82 5.82 0 00.625-.985c.289-.53.492-.89.61-1.078-.25-.289-.61-.738-1.08-1.343l-1.077-1.391c.281-.395.523-.754.734-1.078.207-.32.41-.649.61-.985l-1.985-3.812c.707-1 1.25-1.805 1.625-2.422.313-.52.617-1.047.922-1.578-.055-.219-.215-.66-.484-1.328-.188-.438-.375-.88-.563-1.328.301-.47 1.113-.926 2.438-1.375 1.332-.457 2.535-.688 3.61-.688 2.03 0 3.952.59 5.765 1.766 1.718 1.117 2.789 2.375 3.218 3.781-.074 0-.464.07-1.171.203a75.9 75.9 0 00-2.485.547 51.84 51.84 0 00-2.734.672c-.25-.29-.5-.594-.75-.906-.344-.27-.903-.407-1.672-.407-1.18 0-2.106.559-2.781 1.672-.586.98-.875 2.164-.875 3.547 0 1.711.445 3.008 1.343 3.89.739.743 1.68 1.11 2.829 1.11.457 0 .863-.156 1.218-.469.489-.445.735-1.097.735-1.953-.18-.07-.32-.117-.422-.14a1.149 1.149 0 00-.328-.047c-.043 0-.121.011-.235.031a3.279 3.279 0 01-.328.016 4.89 4.89 0 01-.406-.016 8.64 8.64 0 01-.516-.094 95.75 95.75 0 01-.906-2.422c-.23-.625-.45-1.254-.656-1.89a1066.825 1066.825 0 015.86-.125c2.195-.051 3.663-.078 4.405-.078a.8.8 0 00-.109.437c0 .074.031.356.094.844.07.48.11.945.11 1.39zm-14.594 6.265l-1.203 1.469c-.343 0-.84-.453-1.484-1.36-.7-.968-1.277-2.05-1.734-3.25-.555-1.425-.829-2.738-.829-3.937 0-1.238.313-2.656.938-4.25.707-1.781 1.566-3.055 2.578-3.828.195.23.438.621.719 1.172.289.543.484.949.578 1.219-.211.273-.559.824-1.047 1.656-.21.324-.617 1.011-1.219 2.062.145.45.426 1.078.844 1.89.414.813.766 1.438 1.047 1.876-.531.855-1.063 1.715-1.594 2.578.176.219.453.54.828.953.532.586 1.055 1.168 1.578 1.75zm-1.765-11.953c0-.426-.188-.64-.563-.64-.336 0-.5.214-.5.64 0 .344.164.516.5.516.375 0 .563-.172.563-.516zm-1.313 5.89c0-.363-.199-.546-.593-.546-.344 0-.516.183-.516.547 0 .386.172.578.516.578.394 0 .593-.192.593-.578zm1.844 5.626c0-.375-.18-.563-.531-.563-.356 0-.531.188-.531.563 0 .293.175.437.53.437.352 0 .532-.144.532-.437zm35.667-3.985c0 2.68-.968 4.727-2.905 6.14-1.7 1.25-3.907 1.876-6.625 1.876-2.274 0-4.211-.785-5.813-2.36-1.594-1.57-2.39-3.41-2.39-5.515 0-2.438.898-4.395 2.703-5.875 1.738-1.426 3.957-2.14 6.656-2.14 2.344 0 4.289.671 5.844 2.015 1.687 1.469 2.53 3.422 2.53 5.86zm-2.109-2.187c0-.29-.152-.438-.453-.438-.375 0-.562.149-.562.438 0 .324.187.484.562.484.301 0 .453-.16.453-.484zm-6.265-4.203c0-.364-.164-.547-.485-.547a.511.511 0 00-.359.172.51.51 0 00-.156.375c0 .168.047.277.14.328a.743.743 0 00.375.078c.176 0 .301-.024.375-.078.07-.051.11-.16.11-.328zm4.687 10.968c0-.332-.172-.5-.515-.5-.325 0-.485.168-.485.5 0 .325.16.485.485.485.343 0 .515-.16.515-.485zm1.11-2.593a117.5 117.5 0 00-1.203-1.86c-.032-.05-.36-.5-.985-1.343.164-.852.285-1.645.36-2.375.082-.739.125-1.547.125-2.422-.48.117-1.594.476-3.344 1.078-.574.187-1.028.281-1.36.281-.011 0-.37-.207-1.078-.625-.53-.32-1.195-.64-1.984-.953-.188.492-.402 1.293-.64 2.406-.15.68-.329 1.094-.548 1.25-.117.086-.64.32-1.578.703-.93.387-1.57.672-1.922.86.707.511 1.29.945 1.75 1.297a81.2 81.2 0 001.625 1.28c0 .25-.054.93-.156 2.032a18.494 18.494 0 00-.078 1.625c.406-.05 1.078-.238 2.016-.562.437-.157.734-.235.89-.235.082 0 .328.125.735.375 1.082.7 1.972 1.262 2.672 1.688.175-.332.378-.868.609-1.61.125-.426.254-.847.39-1.265.333-.164.665-.32 1-.47a89.325 89.325 0 012.704-1.155zM131.4 20.916c0-.187-.043-.32-.125-.406a.403.403 0 00-.312-.125c-.375 0-.563.18-.563.531 0 .324.188.484.563.484.289 0 .437-.16.437-.484zm3.72 10.547c0-.352-.173-.531-.516-.531-.368 0-.547.18-.547.53 0 .306.18.454.547.454.343 0 .515-.148.515-.453zm-4.845-3.734a.511.511 0 00-.156-.391.473.473 0 00-.36-.156c-.343 0-.515.183-.515.547 0 .28.172.421.516.421a.666.666 0 00.375-.093c.094-.063.14-.172.14-.328zm11.266-.641c0 .21-.453.414-1.36.61-.554.124-.98.28-1.28.468-.5.293-.782.914-.844 1.86-.032.398-.133.593-.297.593a98.242 98.242 0 01-1.688-1.078c-.53-.344-.984-.516-1.36-.516-.116 0-.523.075-1.218.22l-1 .234c.02-.165.094-.97.219-2.407.008-.218.035-.504.078-.86a6.039 6.039 0 00-.812-.546 50.34 50.34 0 01-1.954-1.172c.102-.207.446-.453 1.032-.734.675-.332 1.351-.672 2.03-1.016.095-.562.173-1.004.235-1.328a13.71 13.71 0 01.453-1.625c.383.305.774.602 1.172.89.457.344.88.622 1.266.829.508-.219 1.328-.508 2.453-.875.383-.125.926-.297 1.625-.516.031.117.047.227.047.328 0 .45-.133 1.219-.39 2.313-.169.68-.274 1.136-.313 1.375.476.594.851 1.07 1.125 1.422.52.68.781 1.187.781 1.53zm-2.562-1.844c0-.695-.165-1.273-.485-1.734-.43-.594-1.086-.89-1.969-.89-.625 0-1.164.257-1.609.765a2.58 2.58 0 00-.656 1.75c0 .742.207 1.36.625 1.86.426.491 1.02.734 1.781.734.695 0 1.254-.223 1.672-.672.426-.446.64-1.051.64-1.813zm22.438-2.078a492.64 492.64 0 00-1.547 1.672c-.449.45-.855.797-1.218 1.047a23.532 23.532 0 00-.141 2.203v1.656a99.59 99.59 0 01-1.547-.484 15.967 15.967 0 01-1.578-.547c-.469.25-.984.476-1.547.672-.562.199-1.09.36-1.578.484l-.11-3.219c0-.257-.464-.882-1.39-1.875-.637-.687-1.012-1.109-1.125-1.265.676-.875 1.328-2.11 1.953-3.703l-.594-1.032a38.39 38.39 0 01-.64-1.046 7.88 7.88 0 002.047-.25 290.58 290.58 0 011.921-.532V21.4c0 .22-.007.563-.015 1.032-.012.46-.016.804-.016 1.03 0 1.063.086 1.829.266 2.298.258.68.75 1.015 1.469 1.015.632 0 1.097-.289 1.39-.875.207-.445.313-1.066.313-1.859a7.92 7.92 0 00-.063-.984 17.266 17.266 0 00-.125-.953v-5.157c1.008.188 1.77.36 2.281.516.52.156.782.277.782.36a38.301 38.301 0 01-.813 1.343c-.21.324-.465.7-.765 1.125.25.305.69.824 1.328 1.563.476.523.832.96 1.062 1.312zm3.078 2.719c0 2.531-.96 4.445-2.875 5.734-1.586 1.063-3.59 1.594-6.015 1.594-1.563 0-3.102-.426-4.61-1.281-1.281-.727-2.148-1.5-2.593-2.313-.043 0-.141-.156-.297-.469-.22-.445-.403-1.007-.547-1.687-.211-.957-.313-2.016-.313-3.172 0-.82-.008-1.883-.015-3.187a362.656 362.656 0 01-.016-3.22h2.031c.407.462.664.759.782.891.27.313.484.641.64.985l-2.187 3.937c.05.063.507.555 1.375 1.469.445.469.914 1.055 1.406 1.75.039.273.148 1.2.328 2.781.063.45.125.938.188 1.469a41.427 41.427 0 003.796-1.547c.375.094.957.297 1.75.61.957.375 1.602.609 1.938.703 0-.145.016-.633.047-1.47.039-.843.062-1.78.062-2.812a30.11 30.11 0 001.672-1.64c.188-.188.676-.692 1.469-1.516a119.466 119.466 0 01-1.563-2.062c-.586-.813-.875-1.352-.875-1.625.125-.196.243-.368.36-.516.27-.375.687-.914 1.25-1.625h2.812zm-1.422-6.39c0-.352-.187-.532-.562-.532-.188 0-.313.043-.375.125-.063.086-.094.219-.094.406 0 .188.031.336.094.438.062.105.187.156.375.156.176 0 .312-.05.406-.156a.63.63 0 00.156-.438zm-.718 8.187c0-.352-.196-.532-.578-.532-.336 0-.5.18-.5.532 0 .398.164.593.5.593.382 0 .578-.195.578-.593zm-13.172-7.922c0-.383-.184-.578-.547-.578-.324 0-.484.195-.484.578 0 .355.16.531.484.531.363 0 .547-.176.547-.531zm6.89 12.015c0-.332-.168-.5-.5-.5-.43 0-.64.168-.64.5 0 .375.21.563.64.563.332 0 .5-.188.5-.563zm-6.312-4.546c0-.333-.203-.5-.61-.5-.367 0-.546.167-.546.5 0 .375.18.562.547.562.406 0 .609-.187.609-.562zm29.46-9.579a44.56 44.56 0 00-.594 1.875 369.27 369.27 0 01-.625 2.141c-.23.805-.398 1.36-.5 1.672-.656.187-1.32.375-1.984.562-.992.543-1.484 1.704-1.484 3.485 0 .25.05 1.125.156 2.625.062.836.094 1.71.094 2.625-.23.094-.758.219-1.579.375-.824.164-1.398.25-1.718.25-.18-.356-.328-.656-.453-.906-.23-.458-.48-.915-.75-1.375.343-.395.691-.891 1.046-1.485.582-.976.895-1.5.938-1.562a188 188 0 00-1.031-1.516 64.459 64.459 0 00-1.063-1.562c.29-.54.578-1.083.86-1.625.425-.813.75-1.477.968-2a19.16 19.16 0 00-.734-1.297c-.836-1.344-1.293-2.098-1.375-2.266l4.094-.125c.101.125.172.219.203.281.101.157.172.25.203.282.5-.063.894-.118 1.187-.172.895-.145 1.582-.301 2.063-.47.25.013.531.024.844.032.312.012.722.063 1.234.156zm-8.625 10.47a23.99 23.99 0 01-.875 1.655c-.273.47-.605.97-1 1.5.207.48.461 1.043.766 1.688.062.113.14.266.234.453-.387.102-.773.203-1.156.297a7.49 7.49 0 01-1.172.219l-.219-16.235h1.188c.25.492.55 1.032.906 1.625.426.711.867 1.403 1.328 2.078a31.993 31.993 0 01-.828 1.844 30.23 30.23 0 01-.922 1.797c.07.148.344.61.813 1.39.406.657.718 1.22.937 1.688zm-1.203-6.891c0-.364-.168-.547-.5-.547-.356 0-.531.183-.531.547 0 .367.175.546.53.546.188 0 .317-.035.392-.109.07-.082.109-.227.109-.437zm-.047 6.453c0-.352-.184-.532-.547-.532-.367 0-.547.18-.547.532 0 .398.18.593.547.593.363 0 .547-.195.547-.593zm27.714 3.656c-.593.23-1.058.402-1.39.516-.336.105-.938.265-1.813.484a42.98 42.98 0 00-.828-1.906 4.895 4.895 0 01-.36-1.157c.208-.25.462-.671.766-1.265.313-.602.594-1.055.844-1.36-.2-.363-.508-1.062-.922-2.093a88.063 88.063 0 01-.89-2.328c.57-1.25 1.148-2.5 1.734-3.75-.23-.438-.531-1.16-.906-2.172a16.01 16.01 0 00-.532-1.282c.07-.312.317-.992.735-2.046.414-1.051.687-1.66.812-1.829h2.063v8.094zm-3.734-4.781c-.512.699-.84 1.152-.984 1.359-.243.324-.45.695-.625 1.11.082.562.296 1.304.64 2.218.113.305.29.719.531 1.25-.324.086-1.351.2-3.078.344-1.73.133-2.773.203-3.125.203-1.617 0-3-.64-4.156-1.922-1.305-1.445-1.953-3.406-1.953-5.875 0-1.414.281-2.648.844-3.703.562-1.062 1.41-1.895 2.547-2.5a8.246 8.246 0 011.812-.703 6.801 6.801 0 011.703-.234c.54 0 1.067.062 1.578.187.239.063.614.195 1.125.39 0-.1-.027-.624-.078-1.562-.105-1.781-.168-2.848-.187-3.203-.075-1.375-.11-2.289-.11-2.75h3.516l-1.438 4.266c.227.343.457.777.688 1.297.352.792.602 1.34.75 1.64a204.089 204.089 0 01-1.078 2.578c-.313.719-.574 1.262-.781 1.625.28.668.566 1.313.859 1.938.477 1.062.812 1.746 1 2.047zm2.266-12.047c0-.406-.18-.61-.532-.61-.336 0-.5.204-.5.61 0 .344.164.515.5.515.352 0 .532-.171.532-.515zm-.141 7.75c0-.364-.195-.547-.578-.547-.375 0-.563.183-.563.547 0 .355.188.531.563.531.383 0 .578-.176.578-.531zm.25 7.219c0-.383-.188-.579-.563-.579-.386 0-.578.196-.578.579 0 .343.192.515.578.515.375 0 .563-.172.563-.515zm-5.25-2.516c0-.258.004-.516.016-.766.007-.25.02-.504.03-.765 0-.57-.07-.977-.202-1.22-.2-.32-.555-.483-1.063-.483a2.71 2.71 0 00-.297.015c-.617 0-1.12.195-1.515.578-.344.344-.516.746-.516 1.203 0 .668.203 1.188.61 1.563a1.69 1.69 0 001.203.484c.664 0 1.117-.047 1.359-.14.25-.094.375-.25.375-.47zm0 0" fill="#ed7833"/></svg>