<svg xmlns="http://www.w3.org/2000/svg" width="280" viewBox="0 0 210 47.25" height="63" version="1.0"><path d="M30.89 12.916c-.148.438-.773 1.531-1.874 3.281-.574.899-1.602 2.461-3.078 4.688-1.106 1.68-1.672 2.558-1.703 2.64-.032.075-.055 1.188-.063 3.344a931.227 931.227 0 00-.016 4.906c-.46.032-.757.059-.89.079-.137.023-.512.105-1.125.25a11.562 11.562 0 01-1.078-1.313 20.38 20.38 0 01-1.032-1.516c0-.257.254-.738.766-1.437.438-.613.883-1.238 1.344-1.875-.149-.238-.446-.586-.89-1.047-1.157-1.164-1.743-1.758-1.75-1.781.194-.477.429-.985.702-1.516.375-.719.633-1.219.782-1.5-.438-.226-1.106-.676-2-1.344a39.342 39.342 0 00-2.094-1.453c.113-.394.222-.922.328-1.578.113-.656.226-1.207.344-1.656a46.818 46.818 0 01-1.11-1.047 12.67 12.67 0 00-1.265-1.016c.07-.03.476-.086 1.218-.171.739-.083 1.286-.176 1.641-.282.656 1.293 1.145 2.2 1.469 2.719.32.523.695 1.059 1.125 1.61a31.9 31.9 0 001.375-2.094c.351-.594.707-1.188 1.062-1.782zm-9.905 19.375c-1.43.344-2.36.57-2.797.688-.438.113-.86.242-1.266.39l-.031-9.562L9.969 12.51c.52 0 .941-.02 1.266-.063.968-.133 1.507-.203 1.625-.203.257 0 .843.274 1.75.813.968.593 1.609 1.125 1.921 1.593l-.671 3.266c.507.512 1.3 1.09 2.375 1.734.757.461 1.234.758 1.421.891-.25.625-.43 1.07-.53 1.328a24.51 24.51 0 00-.485 1.344c.238.367.539.746.906 1.14a106.272 106.272 0 001.438 1.61c-.688 1.023-1.375 2.043-2.063 3.062.406.512.875 1.215 1.406 2.11.164.293.383.68.657 1.156zm-6.5-16.953c0-.363-.184-.547-.547-.547-.368 0-.547.184-.547.547 0 .375.18.562.547.562.363 0 .547-.187.547-.562zm3.03 5.203c0-.352-.198-.531-.593-.531-.355 0-.531.18-.531.531 0 .355.176.531.531.531.395 0 .594-.176.594-.531zm1.735 5.703c0-.375-.203-.562-.61-.562-.355 0-.53.187-.53.562 0 .375.175.563.53.563.407 0 .61-.188.61-.563zm-.047 5.031c0-.425-.187-.64-.562-.64-.375 0-.563.215-.563.64 0 .336.188.5.563.5.375 0 .562-.164.562-.5zm32.846-3.312c-.012.012-.164.023-.453.031h-2.36c-.53-.008-1.023-.02-1.468-.031 0-.05-.028-.094-.079-.125-.054-.04-.078-.078-.078-.11 0-.062.348-.445 1.047-1.156.645-.656 1.11-1.11 1.39-1.36v-.265a43.498 43.498 0 00-2.124-1.593c-.742-.508-1.195-.883-1.36-1.125a31.662 31.662 0 01-1.5-2.313c-.398-.656-.683-.984-.859-.984-.586.593-1.168 1.187-1.75 1.78-.355.25-.808.376-1.36.376h-.25c-.073-.008-.132-.016-.171-.016a7.484 7.484 0 01-.985.063h-.546a7.05 7.05 0 01-.5-.016c-.5 0-.875.047-1.125.14-.25.087-.375.274-.375.563 0 .293.082.664.25 1.11.175.449.265.855.265 1.218 0 .438-.328.938-.984 1.5-.555.461-1.11.907-1.672 1.344.5.324 1.02.735 1.562 1.235.364.375.735.742 1.11 1.093 0 .387-.012.75-.031 1.094a110.408 110.408 0 00-.125 1.844 7 7 0 001.203-.094c.914-.145 1.52-.219 1.812-.219.031.032.5.328 1.406.89.438.282.852.579 1.25.892a6.515 6.515 0 01-.593.875l-.422.484c-.95 0-2.008-.266-3.172-.797-1.461-.648-2.633-1.531-3.516-2.656-1.117-1.395-1.672-3.031-1.672-4.906 0-2.801.833-5.008 2.5-6.625 1.583-1.54 3.641-2.313 6.172-2.313 2.657 0 4.754.594 6.297 1.781 1.133.856 1.961 2.024 2.485 3.5.226.844.457 1.688.687 2.532a24.388 24.388 0 01.094 2.36zm-3.235-2.719c-.523.617-.933 1.07-1.234 1.36-.918.906-1.578 1.359-1.984 1.359h-3.547c0 .344.332.742 1 1.187a97.85 97.85 0 002.219 1.11c-.024.156-.227.511-.61 1.062-.312.461-.625.918-.937 1.375-.188-.082-.578-.3-1.172-.656-.7-.414-1.235-.719-1.61-.906-.273 0-.609-.008-1.015-.031a15.522 15.522 0 00-.703-.047h-.282c-.136.023-.23.03-.28.03-.055-.25-.09-.612-.11-1.093a10.48 10.48 0 00-.047-.922 39.97 39.97 0 00-.719-.953c-.304-.351-.777-.781-1.422-1.281.395-.219.875-.582 1.438-1.094.57-.508.86-.844.86-1-.137-.457-.243-.805-.313-1.047-.219-.758-.328-1.238-.328-1.437 0-.196.109-.332.328-.406.218-.07.515-.11.89-.11.27 0 .63.016 1.078.047.458.031.711.047.766.047 1.176 0 2-.317 2.469-.953.383-.508.586-.774.61-.797.206.187.421.375.64.562.363.743.726 1.48 1.094 2.22 1.351 1 2.16 1.6 2.421 1.796.333.25.5.445.5.578zm-.296-4.281c0-.383-.184-.578-.547-.578-.367 0-.547.195-.547.578 0 .344.18.516.547.516.363 0 .547-.172.547-.516zm-7.36-1.469c0-.375-.172-.562-.515-.562-.368 0-.547.187-.547.562a.64.64 0 00.14.422c.094.117.227.172.407.172.164 0 .289-.055.375-.172a.64.64 0 00.14-.422zm3.39 4.766v-.766c-.124-.27-.335-.531-.624-.781-.336-.29-.652-.438-.953-.438a2.14 2.14 0 00-1.422.532c-.406.343-.61.828-.61 1.453zm-8.437-.203c0-.375-.183-.563-.547-.563-.375 0-.562.188-.562.563 0 .312.187.468.562.468.196 0 .336-.03.422-.093.082-.063.125-.188.125-.375zm5.5 9.734c0-.355-.18-.531-.53-.531-.368 0-.548.176-.548.531 0 .383.18.578.547.578.352 0 .531-.195.531-.578zm-5.187-3.797c0-.375-.172-.562-.516-.562-.375 0-.562.187-.562.562 0 .399.187.594.562.594.344 0 .516-.195.516-.594zM66.457 17.65a44.56 44.56 0 00-.594 1.875c-.242.836-.45 1.547-.625 2.141-.23.805-.399 1.36-.5 1.672-.656.187-1.32.375-1.985.562-.992.543-1.484 1.704-1.484 3.485 0 .25.05 1.125.156 2.625.063.836.094 1.71.094 2.625-.23.094-.758.219-1.578.375-.824.164-1.399.25-1.719.25-.18-.356-.328-.656-.453-.906-.23-.458-.48-.915-.75-1.375.344-.395.691-.891 1.047-1.485.582-.976.894-1.5.937-1.562a188 188 0 00-1.03-1.516 64.459 64.459 0 00-1.063-1.562c.289-.54.578-1.083.859-1.625.426-.813.75-1.477.969-2a19.17 19.17 0 00-.735-1.297c-.836-1.344-1.293-2.098-1.375-2.266l4.094-.125c.102.125.172.219.203.281.102.157.172.25.203.282.5-.063.895-.118 1.188-.172.894-.145 1.582-.301 2.062-.47.25.013.532.024.844.032.313.012.723.063 1.235.156zm-8.625 10.47a23.99 23.99 0 01-.875 1.655c-.274.47-.606.97-1 1.5.207.48.46 1.043.765 1.688.063.113.14.266.235.453-.387.102-.774.203-1.157.297a7.49 7.49 0 01-1.172.219l-.218-16.235h1.187c.25.492.55 1.032.906 1.625.426.711.868 1.403 1.329 2.078a31.993 31.993 0 01-.829 1.844 30.32 30.32 0 01-.921 1.797c.07.148.343.61.812 1.39.406.657.719 1.22.938 1.688zm-1.204-6.891c0-.364-.168-.547-.5-.547-.355 0-.53.183-.53.547 0 .367.175.546.53.546.188 0 .317-.035.391-.109.07-.082.11-.227.11-.437zm-.046 6.453c0-.352-.184-.532-.547-.532-.368 0-.547.18-.547.532 0 .398.18.593.547.593.363 0 .547-.195.547-.593zm28.854-2.438c0 2.293-.468 4.09-1.406 5.39-1.148 1.587-2.922 2.376-5.328 2.376-.586 0-1.656-.074-3.219-.219-.718-.07-1.324-.11-1.812-.11-.543 0-.98.012-1.313.032-.336.023-.812.09-1.437.203a48.271 48.271 0 011.687-3.14c-.406-.844-.793-1.633-1.156-2.376a27.594 27.594 0 01-.719-1.562c.446-.707.766-1.223.953-1.547.332-.55.618-1.11.86-1.672-.086-.226-.516-1.305-1.297-3.234-.242-.602-.36-.93-.36-.985.25-.445.442-.796.579-1.046.437-.801.734-1.391.89-1.766a26.664 26.664 0 00-.515-1.734 59.157 59.157 0 00-.766-2.016 91.804 91.804 0 002.36-.438 20.992 20.992 0 002.14-.53c-.324 2.21-.484 4.21-.484 6 0 .53.07.898.218 1.093.145.187.391.281.735.281.226 0 .52-.023.875-.078.945-.156 1.633-.234 2.062-.234.426 0 .852.043 1.282.125.437.074.89.195 1.359.359 1.3.512 2.273 1.414 2.922 2.703.594 1.149.89 2.524.89 4.125zm-13.875-2.672a119.01 119.01 0 00-1.109 1.719c-.312.512-.57.938-.766 1.281.375.711.754 1.559 1.141 2.547.219.555.438 1.094.656 1.625-.281.68-.547 1.305-.797 1.875-.199.45-.355.781-.468 1-.106.055-.352.133-.735.235-.375.101-.765.18-1.172.234l.063-21.281h1.469c.28.668.472 1.132.578 1.39.312.73.601 1.516.875 2.36l-1.266 2.859zm-1.28-7.703c0-.375-.15-.562-.438-.562-.22 0-.368.043-.438.125-.062.086-.094.23-.094.437 0 .156.032.262.094.313.07.054.219.078.438.078a.908.908 0 00.312-.047c.082-.04.125-.156.125-.344zm8.577 10.469c0-.55-.265-.961-.797-1.234-.418-.22-.914-.329-1.484-.329-.555 0-.898.04-1.031.11-.125.074-.188.281-.188.625v.437c0 .149.008.305.032.469 0 .137-.008.277-.016.422a4.532 4.532 0 00-.016.39c0 .438.07.743.219.907.176.23.54.344 1.094.344.601 0 1.101-.16 1.5-.485.457-.375.687-.926.687-1.656zm-8.375-3.172c0-.187-.008-.297-.015-.328-.043-.113-.18-.172-.407-.172-.355 0-.53.168-.53.5 0 .242.038.375.124.406.082.032.219.047.406.047.196 0 .317-.02.36-.062.039-.051.062-.18.062-.391zm-.234 7.422c0-.219-.04-.363-.11-.438-.062-.082-.199-.125-.406-.125-.355 0-.531.188-.531.563 0 .187.031.308.094.36.07.042.219.062.437.062.227 0 .367-.02.422-.063.063-.039.094-.16.094-.36zm34.472 2c-1 .125-1.703.219-2.11.281a29.13 29.13 0 01-1.359.297c.176-.352.348-.71.516-1.078.07-.188.21-.524.422-1.016a13.831 13.831 0 01-.953-1.047c-.418-.5-.825-1.004-1.22-1.515.145-.25.474-.86.985-1.828.196-.375.426-.782.688-1.22-.23-.288-.469-.679-.719-1.171-.25-.5-.492-.984-.719-1.453.227-.469.555-1.149.985-2.047.28-.613.613-1.32 1-2.125l2.125-.125.015 9.61c0 1.148.114 2.624.344 4.437zm-3.312-1.516c-.188.367-.387.778-.594 1.235-.242.543-.406.87-.5.984-.094.105-.367.219-.813.344a3.37 3.37 0 00-.922.375 6.557 6.557 0 00-.28-.406c-.095-.133-.2-.204-.313-.204-.918.157-1.805.297-2.657.422-.855.125-1.445.188-1.765.188-.875 0-1.79-.274-2.735-.828a7.28 7.28 0 01-2.625-2.578c-.804-1.301-1.203-2.79-1.203-4.47 0-1.019.157-1.952.47-2.796a7.14 7.14 0 011.124-2.016c.695-.82 1.602-1.422 2.719-1.797.894-.312 1.89-.468 2.984-.468.676 0 1.27.058 1.781.172.52.105.864.218 1.032.343.039-.07.086-.191.14-.36.051-.163.082-.265.094-.296.145 0 .64-.02 1.484-.062a53.41 53.41 0 012.47-.063l-1.876 4.047c.633 1.2 1 1.902 1.094 2.11.039.116.125.288.25.515l-.5 1.11a25.67 25.67 0 01-1.016 1.843c.551.773.973 1.328 1.266 1.672.094.125.39.453.89.984zm-3.907-3.703v-.781c0-.906-.086-1.488-.25-1.75-.218-.332-.734-.5-1.547-.5-.492 0-.914.219-1.265.656-.356.43-.531.875-.531 1.344 0 .625.195 1.133.593 1.516.395.375.88.562 1.453.562.489 0 .832-.047 1.032-.14.343-.145.515-.446.515-.907zm4.5.86c0-.333.176-.5.532-.5.343 0 .515.167.515.5 0 .375-.172.562-.515.562-.356 0-.532-.187-.532-.562zm.032-6.157c0-.375.191-.562.578-.562.351 0 .53.187.53.562 0 .399-.179.594-.53.594-.387 0-.578-.195-.578-.594zm41.783 12.344l-7.562.078a67.629 67.629 0 01-.047-1.797c-.043-1.218-.086-2.55-.125-4a127.658 127.658 0 01-.063-2.656c-.242.438-.652 1.277-1.234 2.516a240.844 240.844 0 00-1.594 3.406c-.593 1.25-1.043 2.117-1.343 2.61-.825 0-1.434.003-1.829.015-1.992.062-3.007.094-3.046.094-.293-.563-.711-1.524-1.25-2.891a247.14 247.14 0 01-1.329-3.469c-.199-.562-.398-1.117-.593-1.672l-1.14 7.36h-1.188c-.387.008-.758.02-1.11.031a.668.668 0 01-.25-.031c.133-.176.281-.39.438-.64.164-.25.332-.509.5-.782-.387-.75-.907-1.598-1.563-2.547a72.775 72.775 0 01-1.031-1.531c.219-.364.922-1.172 2.11-2.422a78.308 78.308 0 001.5-1.594l-.829-1.984a31.215 31.215 0 00-1.047-2.328c.563-.77 1.13-1.551 1.703-2.344.852-1.227 1.282-1.957 1.282-2.188a26.114 26.114 0 01-.282-1.046c-.21-.696-.414-1.254-.609-1.672.758 0 1.336-.02 1.734-.063 1.22-.094 2.055-.14 2.516-.14 1.082 2.742 1.852 4.757 2.313 6.046.289.844.492 1.543.609 2.094.125.555.27 1.09.437 1.61.332-.758.692-1.61 1.079-2.547l1.359-3.297c.477-1.196.96-2.473 1.453-3.828 1.145.187 2.399.351 3.766.484 1.363.125 2.492.188 3.39.188.551 0 1.086-.032 1.61-.094zm-21.61-18.766c-.23.293-.452.579-.67.86a78.566 78.566 0 00-1.392 1.828 37.664 37.664 0 00-1.203 1.656c.364.805.739 1.61 1.125 2.422.395.813.711 1.398.953 1.75a27.172 27.172 0 01-1.5 1.844 594.5 594.5 0 00-2.265 2.562c.156.262.484.782.984 1.563.875 1.355 1.367 2.172 1.485 2.453-.2.2-.391.402-.579.61-.242.304-.468.573-.687.812-.375.05-.945.097-1.703.14-.762.051-1.531.18-2.313.391.79-3.852 1.438-7.398 1.938-10.64.394-2.5.687-4.813.875-6.938.156-1.602.234-2.828.234-3.672.063-.07.688-.14 1.875-.203a49.23 49.23 0 011.781-.094c.196.45.399.945.61 1.485.219.53.367.921.453 1.171zm-2.093-.75c0-.382-.195-.578-.578-.578-.367 0-.547.196-.547.578 0 .356.18.532.547.532.383 0 .578-.176.578-.532zm-1.312 8.97c0-.345-.188-.516-.563-.516-.355 0-.531.171-.531.515 0 .418.176.625.531.625.375 0 .563-.207.563-.625zm-1.313 8.218c0-.395-.183-.594-.547-.594-.367 0-.547.2-.547.594 0 .2.04.336.125.406.082.063.223.094.422.094.364 0 .547-.164.547-.5zm45.997.5c-1 .125-1.703.219-2.11.281a29.13 29.13 0 01-1.359.297c.176-.352.348-.71.516-1.078.07-.188.21-.524.422-1.016a13.831 13.831 0 01-.953-1.047c-.418-.5-.825-1.004-1.22-1.515.145-.25.474-.86.985-1.828.196-.375.426-.782.688-1.22-.23-.288-.469-.679-.719-1.171-.25-.5-.492-.984-.719-1.453.227-.469.555-1.149.985-2.047.28-.613.613-1.32 1-2.125l2.125-.125.015 9.61c0 1.148.114 2.624.344 4.437zm-3.313-1.516c-.187.367-.386.778-.593 1.235-.242.543-.407.87-.5.984-.094.105-.367.219-.813.344a3.37 3.37 0 00-.922.375 6.557 6.557 0 00-.28-.406c-.095-.133-.2-.204-.313-.204-.918.157-1.805.297-2.657.422-.855.125-1.445.188-1.765.188-.875 0-1.79-.274-2.735-.828a7.28 7.28 0 01-2.625-2.578c-.804-1.301-1.203-2.79-1.203-4.47 0-1.019.156-1.952.469-2.796a7.14 7.14 0 011.125-2.016c.695-.82 1.602-1.422 2.719-1.797.894-.312 1.89-.468 2.984-.468.676 0 1.27.058 1.781.172.52.105.864.218 1.032.343.039-.07.086-.191.14-.36.051-.163.082-.265.094-.296.145 0 .64-.02 1.484-.062a53.41 53.41 0 012.47-.063l-1.876 4.047c.633 1.2 1 1.902 1.094 2.11.039.116.125.288.25.515l-.5 1.11a25.67 25.67 0 01-1.016 1.843c.551.773.973 1.328 1.266 1.672.094.125.39.453.89.984zm-3.906-3.703v-.781c0-.906-.086-1.488-.25-1.75-.219-.332-.734-.5-1.547-.5-.492 0-.914.219-1.265.656-.356.43-.532.875-.532 1.344 0 .625.196 1.133.594 1.516.395.375.88.562 1.453.562.489 0 .832-.047 1.032-.14.343-.145.515-.446.515-.907zm4.5.86c0-.333.176-.5.531-.5.344 0 .516.167.516.5 0 .375-.172.562-.516.562-.355 0-.53-.187-.53-.562zm.031-6.157c0-.375.192-.562.579-.562.351 0 .53.187.53.562 0 .399-.179.594-.53.594-.387 0-.579-.195-.579-.594zm17.67-3.734l-.28 1.469a265.149 265.149 0 01-.532 2.797c-.211 1.011-.336 1.546-.375 1.609l-2.297.016v8.875a27.12 27.12 0 01-1.516.468c-.449.117-1.086.262-1.906.438.313-.645.54-1.14.688-1.485.468-1.039.703-1.648.703-1.828 0-.093-.29-.508-.86-1.25-.574-.75-.859-1.203-.859-1.36 0-.03.285-.628.86-1.796.57-1.176.859-1.895.859-2.156 0-.25-.34-.832-1.016-1.75-.68-.914-1.015-1.446-1.015-1.594.32-.8.562-1.398.718-1.797.5-1.238.75-1.867.75-1.89 0-.157-.172-.743-.515-1.766-.118-.332-.356-1.016-.72-2.047.665-.176 1.29-.305 1.876-.39.812-.145 1.484-.27 2.016-.376l-.063 5.813c.32 0 .656.012 1 .031.344.012.719.024 1.125.031.363 0 .816-.02 1.36-.062zm-6.562 6.094c0 .242-.18.734-.531 1.484-.344.75-.7 1.508-1.063 2.266 0 .156.258.601.781 1.328.52.73.782 1.226.782 1.484-.18.356-.328.652-.453.89a70.865 70.865 0 01-1.141 2.126c-.469.113-.89.203-1.266.265-.375.07-.75.145-1.125.22v-10.33h-1.765l-.61-5.656 2.375.031v-4.5c.25-.125.649-.227 1.203-.312.563-.094.875-.157.938-.188.101.25.285.64.547 1.172.437.875.707 1.562.812 2.062 0 .063-.234.696-.703 1.891-.469 1.188-.703 1.809-.703 1.86 0 .292.316.953.953 1.984.645 1.031.969 1.672.969 1.922zm-1.547-7.688c0-.383-.187-.578-.562-.578-.344 0-.516.195-.516.578 0 .313.172.469.516.469.195 0 .335-.031.421-.094.094-.07.141-.195.141-.375zm0 7.688c0-.375-.187-.563-.562-.563-.368 0-.547.188-.547.563 0 .367.18.547.547.547.375 0 .562-.18.562-.547zm0 6.265c0-.394-.187-.593-.562-.593-.368 0-.547.199-.547.593 0 .375.18.563.547.563.375 0 .562-.188.562-.563zM198.16 12.76c-.656.523-1.542 1.148-2.656 1.875-1.273.855-2.386 1.554-3.343 2.094a1.63 1.63 0 01-.469-.047 15.492 15.492 0 00-.844-.22c.125-.206.27-.35.438-.437.175-.082.363-.18.562-.296.113-.532.192-.907.235-1.125.05-.227.195-.508.437-.844.719-.176 1.149-.29 1.297-.344.312-.102.71-.289 1.203-.562.156-.239.3-.508.438-.813.101-.227.238-.539.406-.937zm-2.843-2.031l-.219.734c-.074.242-.215.543-.422.906-.367.262-.953.531-1.765.813-.387.136-.766.265-1.14.39l-.438 1.813c-.274.199-.461.34-.563.422a4.55 4.55 0 01-.578.359 4.388 4.388 0 01-.953-.172 4.05 4.05 0 01-.828-.422.375.375 0 01-.125-.281c.008-.094.02-.191.031-.297l6.031-4.875c.25.125.57.328.969.61zm-1.328 1.14a.24.24 0 00.11-.203c0-.102-.071-.18-.204-.234-.074-.082-.14-.125-.203-.125-.086 0-.168.058-.25.172a.524.524 0 00-.047.203c0 .105.05.187.156.25a.249.249 0 00.203.093c.094 0 .172-.05.235-.156zm-3.25 2.985c.02-.114.031-.188.031-.22a.332.332 0 00-.14-.265c-.118-.062-.2-.094-.25-.094-.094 0-.169.047-.22.141a.526.526 0 00-.077.266c0 .074.046.156.14.25a.476.476 0 00.219.047c.102 0 .203-.04.297-.125zm8.531 13.109c-.012.012-.164.023-.453.031h-2.36c-.53-.008-1.023-.02-1.468-.031 0-.05-.028-.094-.078-.125-.055-.04-.078-.078-.078-.11 0-.062.347-.445 1.046-1.156.645-.656 1.11-1.11 1.391-1.36v-.265a43.498 43.498 0 00-2.125-1.593c-.742-.508-1.195-.883-1.36-1.125a31.662 31.662 0 01-1.5-2.313c-.398-.656-.683-.984-.859-.984-.586.593-1.168 1.187-1.75 1.78-.355.25-.808.376-1.359.376h-.25c-.074-.008-.133-.016-.172-.016a7.484 7.484 0 01-.984.063h-.547a7.05 7.05 0 01-.5-.016c-.5 0-.875.047-1.125.14-.25.087-.375.274-.375.563 0 .293.082.664.25 1.11.176.449.265.855.265 1.218 0 .438-.328.938-.984 1.5-.555.461-1.11.907-1.672 1.344.5.324 1.02.735 1.563 1.235.363.375.734.742 1.11 1.093 0 .387-.013.75-.032 1.094a110.408 110.408 0 00-.125 1.844 7 7 0 001.203-.094c.914-.145 1.52-.219 1.812-.219.032.032.5.328 1.407.89.437.282.851.579 1.25.892a6.515 6.515 0 01-.594.875l-.422.484c-.95 0-2.008-.266-3.172-.797-1.46-.648-2.633-1.531-3.515-2.656-1.118-1.395-1.672-3.031-1.672-4.906 0-2.801.832-5.008 2.5-6.625 1.582-1.54 3.64-2.313 6.172-2.313 2.656 0 4.753.594 6.296 1.781 1.133.856 1.961 2.024 2.485 3.5.226.844.457 1.688.687 2.532.032.312.051.617.063.906.02.293.031.777.031 1.453zm-3.234-2.719c-.524.617-.934 1.07-1.235 1.36-.918.906-1.578 1.359-1.984 1.359h-3.547c0 .344.332.742 1 1.187a97.85 97.85 0 002.219 1.11c-.024.156-.227.511-.61 1.062-.312.461-.625.918-.937 1.375-.188-.082-.578-.3-1.172-.656-.7-.414-1.234-.719-1.61-.906-.273 0-.609-.008-1.015-.031a15.522 15.522 0 00-.703-.047h-.281c-.137.023-.23.03-.282.03-.054-.25-.09-.612-.109-1.093a10.48 10.48 0 00-.047-.922 39.97 39.97 0 00-.719-.953c-.304-.351-.777-.781-1.421-1.281.394-.219.875-.582 1.437-1.094.57-.508.86-.844.86-1-.137-.457-.243-.805-.313-1.047-.219-.758-.328-1.238-.328-1.437 0-.196.11-.332.328-.406.219-.07.516-.11.89-.11.27 0 .63.016 1.079.047.457.031.71.047.765.047 1.176 0 2-.317 2.47-.953.382-.508.585-.774.608-.797.207.187.422.375.641.562.363.743.727 1.48 1.094 2.22 1.351 1 2.16 1.6 2.422 1.796.332.25.5.445.5.578zm-.297-4.281c0-.383-.184-.578-.547-.578-.367 0-.547.195-.547.578 0 .344.18.516.547.516.363 0 .547-.172.547-.516zm-7.36-1.469c0-.375-.171-.562-.515-.562-.367 0-.547.187-.547.562a.64.64 0 00.14.422c.094.117.227.172.407.172.164 0 .289-.055.375-.172a.64.64 0 00.14-.422zm3.391 4.766v-.766c-.125-.27-.336-.531-.625-.781-.336-.29-.652-.438-.953-.438-.531 0-1.008.18-1.422.532-.406.343-.61.828-.61 1.453zm-8.437-.203c0-.375-.184-.563-.547-.563-.375 0-.563.188-.563.563 0 .312.188.468.563.468.195 0 .336-.03.422-.093.082-.063.125-.188.125-.375zm5.5 9.734c0-.355-.18-.531-.532-.531-.367 0-.547.176-.547.531 0 .383.18.578.547.578.352 0 .532-.195.532-.578zm-5.188-3.797c0-.375-.172-.562-.516-.562-.375 0-.562.187-.562.562 0 .399.187.594.562.594.344 0 .516-.195.516-.594zm0 0" fill="#ed7833"/></svg>