<svg xmlns="http://www.w3.org/2000/svg" width="280" viewBox="0 0 210 47.25" height="63" version="1.0"><path d="M47.147 11.525c-.168.086-.906.438-2.218 1.063a30.4 30.4 0 00-1.844.906c.05.262.207.703.469 1.328.27.617.457 1.11.562 1.485-.262.28-.562.574-.906.875-.899.78-1.438 1.265-1.625 1.453.07.386.332 1.168.781 2.344.457 1.167.75 1.976.875 2.421-.5.48-1.09 1.012-1.766 1.594-.68.586-1.203 1-1.578 1.25.133.469.313.969.532 1.5.218.524.347.856.39 1-.418.262-1.09.61-2.015 1.047-.293.148-.684.336-1.172.563-.063 0-.235-.145-.516-.438-.742-.75-1.152-1.148-1.234-1.203.156-.063.566-.473 1.234-1.234.82-.938 1.5-1.883 2.031-2.844.72-1.301 1.078-2.473 1.078-3.516 0-.625-.09-1.351-.265-2.187-.168-.832-.25-1.446-.25-1.844 0-.469.101-1.008.312-1.625.29-.895.77-1.766 1.438-2.61.226-.289.883-.898 1.969-1.828a614.86 614.86 0 002.203-1.875c.258.512.504.922.734 1.235.32.437.582.82.781 1.14zm2.375 3.235c-.73.586-1.46 1.168-2.187 1.75-1.055 1.043-1.578 2.187-1.578 3.437 0 .18.093.711.281 1.594.187.887.281 1.684.281 2.39v.36c0 .824-.152 1.574-.453 2.25-.305.68-.781 1.434-1.437 2.266-2.387 3-3.813 4.5-4.282 4.5-.062 0-.39-.344-.984-1.032-.594-.695-.93-1.156-1-1.375.477-.312 1.098-.609 1.86-.89.769-.281 1.367-.555 1.796-.828a5.605 5.605 0 00-.344-1.235l-.687-1.515c.258-.157.676-.461 1.25-.922 1.445-1.156 2.195-1.758 2.25-1.813-.273-.789-.547-1.586-.828-2.39-.367-1.02-.668-1.774-.906-2.266.445-.383.82-.723 1.125-1.016.507-.562.937-1.02 1.28-1.375l-.843-2.843c.656-.164 1.395-.438 2.219-.813.437-.207.879-.422 1.328-.64.395.468.71.855.953 1.156.29.355.594.773.906 1.25zm-3.562-3.594c0-.457-.184-.687-.547-.687-.43 0-.64.23-.64.687 0 .375.21.563.64.563.363 0 .547-.188.547-.563zm-3.406 4.453c0-.445-.2-.672-.594-.672-.375 0-.563.227-.563.672 0 .375.188.563.563.563.394 0 .594-.188.594-.563zm-.782 7.172c0-.414-.203-.625-.609-.625-.418 0-.625.211-.625.625 0 .406.207.61.625.61.406 0 .61-.204.61-.61zm-2.812 5.375c0-.426-.215-.64-.64-.64-.43 0-.641.214-.641.64 0 .219.05.371.156.453.113.086.273.125.484.125.426 0 .64-.191.64-.578zm29.943 3.328a49.19 49.19 0 00-2.282.453c-1.28.282-2.605.711-3.968 1.282a52.188 52.188 0 01-.063-1.438 510.3 510.3 0 01-.094-2.578 73.227 73.227 0 01-.062-2.438v-.39c0-.781-.07-1.383-.203-1.813-.23-.676-.64-1.015-1.235-1.015-.668 0-1.148.265-1.437.797-.23.437-.344 1.03-.344 1.78 0 .2.004.356.016.47.008.117.031.324.062.625 0 .71.04 1.902.125 3.578.04.968.063 1.714.063 2.234h-3.11c.125-.445.305-.953.547-1.516.239-.57.43-1.082.578-1.53-.273-.5-.668-1.188-1.187-2.063-.43-.707-.727-1.282-.89-1.72.187-.507.55-1.358 1.093-2.546.55-1.195.828-1.812.828-1.844 0-.062-.34-.597-1.015-1.61-.68-1.019-1.016-1.597-1.016-1.733 0-.051.27-.672.812-1.86.551-1.195.829-1.875.829-2.031l-1.516-3.719c.195 0 .617-.047 1.266-.14a36.055 36.055 0 001.875-.313c0 .742.02 1.617.062 2.625l.156 3.156c.063 1.106.094 1.867.094 2.282.29-.188.766-.336 1.422-.454a13.318 13.318 0 012.25-.171c1.988 0 3.508.542 4.562 1.625.875.906 1.313 2.023 1.313 3.343 0 .793.035 1.828.11 3.11.07 1.28.148 2.586.234 3.906.039.555.082 1.105.125 1.656zM56.465 29.62a38.34 38.34 0 01-.578 1.719 39.304 39.304 0 01-.625 1.672c-.406.039-.793.094-1.156.156-.367.063-.735.129-1.11.203 0-.875-.058-2.71-.171-5.515a559.74 559.74 0 00-.422-9.11c-.168-3.27-.325-5.703-.47-7.297.302-.031.63-.066.985-.11a9.98 9.98 0 001.375-.28c.032 0 .328.625.89 1.875.563 1.25.845 1.902.845 1.953 0 .105-.403.969-1.203 2.594-.45.917-.7 1.437-.75 1.562.382.5.71.934.984 1.297.363.5.695 1.012 1 1.531a46.32 46.32 0 01-.625 2 22.08 22.08 0 01-1.094 2.5c.102.156.473.742 1.11 1.75.32.512.66 1.012 1.015 1.5zm-2.078-14.797c0-.383-.168-.578-.5-.578-.355 0-.531.195-.531.578 0 .387.176.578.531.578.332 0 .5-.191.5-.578zm.438 7.375c0-.351-.18-.531-.532-.531-.386 0-.578.18-.578.531 0 .375.192.563.578.563.352 0 .532-.188.532-.563zm.109 7.797a.75.75 0 00-.156-.484.54.54 0 00-.438-.188.484.484 0 00-.39.188.73.73 0 00-.157.484c0 .305.18.453.547.453.395 0 .594-.148.594-.453zm34-4.798c0 2.68-.969 4.727-2.906 6.14-1.7 1.25-3.906 1.876-6.625 1.876-2.274 0-4.211-.785-5.813-2.36-1.593-1.57-2.39-3.41-2.39-5.515 0-2.438.898-4.395 2.703-5.875 1.738-1.426 3.957-2.14 6.656-2.14 2.344 0 4.29.671 5.844 2.015 1.687 1.469 2.531 3.422 2.531 5.86zm-2.11-2.187c0-.29-.152-.438-.452-.438-.375 0-.563.149-.563.438 0 .324.188.484.563.484.3 0 .453-.16.453-.484zm-6.265-4.203c0-.364-.164-.547-.484-.547a.511.511 0 00-.36.172.51.51 0 00-.156.375c0 .168.047.277.14.328a.743.743 0 00.376.078c.175 0 .3-.024.375-.078.07-.051.109-.16.109-.328zm4.688 10.968c0-.332-.172-.5-.516-.5-.324 0-.484.168-.484.5 0 .325.16.485.484.485.344 0 .516-.16.516-.485zm1.109-2.593a117.5 117.5 0 00-1.203-1.86c-.031-.05-.36-.5-.985-1.343a27.17 27.17 0 00.36-2.375c.082-.739.125-1.547.125-2.422-.48.117-1.594.476-3.344 1.078-.574.187-1.027.281-1.36.281-.011 0-.37-.207-1.077-.625-.532-.32-1.196-.64-1.985-.953-.187.492-.402 1.293-.64 2.406-.149.68-.329 1.094-.547 1.25-.118.086-.641.32-1.578.703-.93.387-1.57.672-1.922.86a83.56 83.56 0 011.75 1.297 81.2 81.2 0 001.625 1.28c0 .25-.055.93-.157 2.032a18.494 18.494 0 00-.078 1.625c.407-.05 1.078-.238 2.016-.562.437-.157.734-.235.89-.235.083 0 .329.125.735.375 1.082.7 1.973 1.262 2.672 1.688.176-.332.379-.868.61-1.61.124-.426.253-.847.39-1.265.332-.164.664-.32 1-.47a89.325 89.325 0 012.703-1.155zm-11.281-6.266c0-.187-.043-.32-.125-.406a.403.403 0 00-.313-.125c-.375 0-.562.18-.562.531 0 .324.187.484.562.484.29 0 .438-.16.438-.484zm3.718 10.547c0-.352-.171-.531-.515-.531-.367 0-.547.18-.547.53 0 .306.18.454.547.454.344 0 .515-.148.515-.453zm-4.843-3.734a.511.511 0 00-.157-.391.473.473 0 00-.359-.156c-.344 0-.516.183-.516.547 0 .28.172.421.516.421a.666.666 0 00.375-.093c.094-.063.14-.172.14-.328zm11.265-.641c0 .21-.453.414-1.36.61-.554.124-.98.28-1.28.468-.5.293-.782.914-.844 1.86-.031.398-.133.593-.297.593a98.242 98.242 0 01-1.687-1.078c-.532-.344-.985-.516-1.36-.516-.117 0-.523.075-1.219.22l-1 .234c.02-.165.094-.97.22-2.407a10.4 10.4 0 01.077-.86 6.039 6.039 0 00-.812-.546 50.34 50.34 0 01-1.953-1.172c.101-.207.445-.453 1.03-.734a183.19 183.19 0 002.032-1.016c.094-.562.172-1.004.235-1.328a13.34 13.34 0 01.453-1.625c.382.305.773.602 1.172.89.457.344.878.622 1.265.829.508-.219 1.328-.508 2.453-.875.383-.125.926-.297 1.625-.516.032.117.047.227.047.328 0 .45-.133 1.219-.39 2.313-.168.68-.274 1.136-.313 1.375.477.594.852 1.07 1.125 1.422.52.68.781 1.187.781 1.53zm-2.562-1.844c0-.695-.164-1.273-.485-1.734-.43-.594-1.086-.89-1.968-.89-.625 0-1.164.257-1.61.765a2.58 2.58 0 00-.656 1.75c0 .742.207 1.36.625 1.86.426.491 1.02.734 1.781.734.696 0 1.254-.223 1.672-.672.426-.446.64-1.051.64-1.813zm24.281.203c0 1.7-.398 3.215-1.187 4.547-.586.969-1.25 1.695-2 2.172a4.255 4.255 0 01-1.422.563c-.5.105-1.059.156-1.672.156-.399 0-.774-.012-1.125-.031-1.074-.07-1.633-.11-1.672-.11-.469 0-.809.059-1.016.172v4.563c-.23.039-.414.066-.547.078a7.196 7.196 0 01-.406.015 1.89 1.89 0 01-.531-.078 1.78 1.78 0 00-.438-.062c-.18 0-.34.015-.484.047.05-.18.094-.32.125-.422.195-.625.383-1.102.563-1.422 0-.305-.438-1.04-1.313-2.203a41.59 41.59 0 00-1.062-1.328c.207-.176.504-.579.89-1.204l1.578-2.671c-.324-.532-.789-1.145-1.39-1.844-.606-.707-1-1.164-1.188-1.375.196-.426.555-1.067 1.078-1.922.664-1.082 1.164-1.953 1.5-2.61a63.244 63.244 0 00-.797-1.218 34.236 34.236 0 01-.984-1.594c.313 0 .922-.05 1.828-.156.906-.114 1.61-.172 2.11-.172 0 .45.035.672.109.672.031.011.25 0 .656-.031.406-.032.785-.047 1.14-.047 1.145 0 2.118.12 2.923.359.656.2 1.254.496 1.797.89 1.082.794 1.863 1.762 2.343 2.907.395.96.594 2.078.594 3.36zm-12.422-4.61a35.987 35.987 0 00-1.578 2.313c-.562.907-.969 1.672-1.219 2.297.383.387.774.762 1.172 1.125a11.652 11.652 0 011.547 1.86 301.67 301.67 0 00-1.375 1.953c-.48.699-.89 1.336-1.234 1.906.218.344.718.992 1.5 1.953.55.676.828 1.14.828 1.39a68.041 68.041 0 00-.875 1.641c-.387-.074-.82-.156-1.297-.25-.48-.086-.953-.164-1.422-.234l.094-18.703c.207-.02.504-.067.89-.14.383-.083.692-.126.922-.126.352.375.75.899 1.188 1.563.344.523.629 1.008.86 1.453zm6.266 4.407c0-.5-.152-.894-.453-1.187-.344-.313-.871-.47-1.578-.47-.668 0-1.07.075-1.204.22-.187.218-.28.836-.28 1.843 0 .125-.009.246-.016.36a3.279 3.279 0 00-.016.328c0 .336.055.574.172.719.164.18.469.265.906.265.54 0 1.11-.218 1.703-.656.508-.363.766-.836.766-1.422zm-7.953-4.36a.706.706 0 00-.063-.296c-.031-.094-.133-.14-.297-.14-.336 0-.5.148-.5.437 0 .312.164.469.5.469.239 0 .36-.157.36-.47zm-.313 7.282c0-.27-.133-.406-.39-.406-.305 0-.454.136-.454.406 0 .324.149.484.454.484.257 0 .39-.16.39-.484zm-.047 7.234c0-.168-.027-.289-.078-.359-.054-.074-.156-.11-.312-.11-.274 0-.407.157-.407.47 0 .238.133.359.407.359.258 0 .39-.121.39-.36zm32.37-9.953c0 1.7-.399 3.215-1.188 4.547-.586.969-1.25 1.695-2 2.172a4.246 4.246 0 01-1.422.563c-.5.105-1.058.156-1.671.156-.399 0-.774-.012-1.125-.031-1.075-.07-1.633-.11-1.672-.11-.47 0-.809.059-1.016.172v4.563c-.23.039-.414.066-.547.078a7.196 7.196 0 01-.406.015c-.18 0-.356-.027-.531-.078a1.78 1.78 0 00-.438-.062c-.18 0-.34.015-.484.047.05-.18.094-.32.125-.422.195-.625.383-1.102.562-1.422 0-.305-.437-1.04-1.312-2.203a41.59 41.59 0 00-1.063-1.328c.207-.176.504-.579.89-1.204.52-.882 1.048-1.773 1.579-2.671-.324-.532-.79-1.145-1.39-1.844-.606-.707-1-1.164-1.188-1.375.195-.426.555-1.067 1.078-1.922.664-1.082 1.164-1.953 1.5-2.61a63.244 63.244 0 00-.797-1.218 34.236 34.236 0 01-.984-1.594c.312 0 .922-.05 1.828-.156.906-.114 1.61-.172 2.11-.172 0 .45.034.672.109.672.03.011.25 0 .656-.031.406-.032.785-.047 1.14-.047 1.145 0 2.118.12 2.922.359.657.2 1.254.496 1.797.89 1.082.794 1.864 1.762 2.344 2.907.395.96.594 2.078.594 3.36zm-12.422-4.61a35.987 35.987 0 00-1.578 2.313c-.563.907-.969 1.672-1.219 2.297.383.387.773.762 1.172 1.125a11.652 11.652 0 011.547 1.86 228.767 228.767 0 00-1.375 1.953c-.48.699-.89 1.336-1.235 1.906.22.344.72.992 1.5 1.953.551.676.829 1.14.829 1.39a68.041 68.041 0 00-.875 1.641c-.387-.074-.82-.156-1.297-.25-.48-.086-.953-.164-1.422-.234l.094-18.703c.207-.02.503-.067.89-.14.383-.083.692-.126.922-.126.352.375.75.899 1.188 1.563.343.523.628 1.008.859 1.453zm6.266 4.407c0-.5-.153-.894-.454-1.187-.343-.313-.87-.47-1.578-.47-.668 0-1.07.075-1.203.22-.187.218-.281.836-.281 1.843 0 .125-.008.246-.016.36a3.279 3.279 0 00-.015.328c0 .336.054.574.172.719.164.18.468.265.906.265.539 0 1.11-.218 1.703-.656.508-.363.766-.836.766-1.422zm-7.954-4.36a.706.706 0 00-.062-.296c-.031-.094-.133-.14-.297-.14-.336 0-.5.148-.5.437 0 .312.164.469.5.469.238 0 .36-.157.36-.47zm-.312 7.282c0-.27-.133-.406-.39-.406-.305 0-.454.136-.454.406 0 .324.149.484.453.484.258 0 .39-.16.39-.484zm-.047 7.234c0-.168-.027-.289-.078-.359-.055-.074-.156-.11-.313-.11-.273 0-.406.157-.406.47 0 .238.133.359.406.359.258 0 .391-.121.391-.36zm23.401-20.78c0 1.116-.36 1.968-1.078 2.562-.625.523-1.418.78-2.375.78-.825 0-1.235-.097-1.235-.296a91.14 91.14 0 011.172-1.312c.383-.415.75-.91 1.094-1.485 0-.125-.45-.566-1.344-1.328-.887-.77-1.543-1.285-1.969-1.547a3.9 3.9 0 01.922-.578 2.84 2.84 0 011.094-.203c1.195 0 2.133.371 2.812 1.11.602.656.907 1.421.907 2.296zm-3.344.03c-.25.461-.578.95-.984 1.47-.368.46-.825.976-1.375 1.546a3.926 3.926 0 01-.985-.984c-.418-.614-.625-1.313-.625-2.094 0-.219.086-.555.266-1.016.176-.468.398-.851.672-1.156.382.168.898.48 1.547.938.718.511 1.21.945 1.484 1.296zm3.125 18.047c-.461.094-.914.18-1.36.266-.21.039-.695.156-1.453.344a27.996 27.996 0 00-.953-1.47l-.36-.452c0-.063.321-.64.97-1.735.656-1.101.984-1.722.984-1.859 0-.176-.242-.441-.719-.797-.468-.363-.703-.633-.703-.812.227-.696.457-1.391.688-2.078.457-1.383.687-2.196.687-2.438l-1.547-2.219c.446 0 1.196-.066 2.25-.203.344-.05.82-.117 1.438-.203zm-3.172-4.765c0 .136-.324.668-.969 1.593-.648.918-.968 1.414-.968 1.485 0 .117.265.554.796 1.312.301.45.536.852.704 1.219-.688.219-1.262.39-1.72.516-.448.132-.85.218-1.202.25V20.135c.226-.082.488-.14.78-.172.29-.031.567-.11.829-.234.313.367.629.73.953 1.093.3.399.508.805.625 1.219l-1.39 4.297c.05.062.44.422 1.171 1.078.258.242.391.414.391.516zm-1.781-12.907c0-.394-.188-.593-.563-.593-.343 0-.515.199-.515.593 0 .356.172.532.515.532.375 0 .563-.176.563-.532zm.265 7.36c0-.375-.168-.563-.5-.563-.343 0-.515.188-.515.563 0 .355.172.531.515.531.332 0 .5-.176.5-.531zm.297 5.844a.573.573 0 00-.187-.438.558.558 0 00-.422-.187.574.574 0 00-.422.171.607.607 0 00-.172.454c0 .18.05.304.156.375a.786.786 0 00.438.109c.187 0 .332-.031.437-.094.114-.07.172-.203.172-.39zm23.276 4.468a4.544 4.544 0 01-.844.094c-.18 0-.293-.008-.344-.031a.354.354 0 01-.093-.094c-.555 0-1.391.117-2.516.344-.543.113-1.086.234-1.625.36h-1.344v-8.876c0-.426-.18-.785-.531-1.078-.344-.289-.7-.437-1.063-.437-.5 0-.87.195-1.109.578-.242.386-.36.98-.36 1.78v7.282c-.312 0-.929.031-1.843.094-.906.062-1.516.133-1.828.203a34.162 34.162 0 01-.469-1.14c-.168-.407-.25-.66-.25-.766 0-.082.422-.625 1.266-1.625.57-.676.957-1.16 1.156-1.453l-2.125-3.047c.113-.188.457-.977 1.031-2.375.188-.446.461-1.114.828-2 0-.102-.261-.563-.78-1.375a96.91 96.91 0 00-.782-1.219c.844-.094 1.52-.195 2.031-.312a53.94 53.94 0 001.531-.36l.078.485c.676-.114 1.352-.227 2.032-.344.832-.145 1.566-.219 2.203-.219 1.445 0 2.742.453 3.89 1.36 1.157.898 1.735 1.945 1.735 3.14 0 1.773.008 3.133.031 4.078.02.95.04 2.09.063 3.422.02 1.336.03 2.512.03 3.531zm-13.063-4.703c0 .242-.355.762-1.062 1.563-.7.793-1.047 1.242-1.047 1.343 0 .125.055.305.172.532.289.593.472 1.09.547 1.484-.012.031-.403.133-1.172.313-.492.125-.824.21-1 .265l-.047-15.125c.539 0 .863-.004.969-.015.101-.008.336-.067.703-.172.426.199.812.554 1.156 1.062.25.367.5.86.75 1.485-.074.167-.293.667-.656 1.5-.594 1.367-.95 2.199-1.063 2.5.125.335.364.812.72 1.437.687 1.18 1.03 1.79 1.03 1.828zm-1.468-6.969c0-.425-.2-.64-.594-.64-.336 0-.5.215-.5.64 0 .305.164.454.5.454.394 0 .594-.149.594-.454zm.171 7.094c0-.394-.195-.594-.578-.594-.343 0-.515.2-.515.594 0 .336.172.5.515.5.383 0 .578-.164.578-.5zm34.396 3.751c0 2.038-1.047 3.804-3.14 5.296-1.856 1.313-3.762 1.969-5.72 1.969-.367 0-.703-.031-1.015-.094l-.453-1.516a8.645 8.645 0 001.437-.812c.344-.281.614-.508.813-.672.039 0 .742.047 2.11.14.687.051 1.331.079 1.937.079 0-.18-.121-.914-.36-2.203-.242-1.282-.418-2.086-.53-2.422.288-.508.687-1.196 1.187-2.063.3-.5.492-.832.578-1-.137-.195-.387-.613-.75-1.25-.43-.738-.856-1.488-1.282-2.25.114-.195.391-.718.829-1.562a262.047 262.047 0 001.5-2.969c-.72-.812-1.102-1.242-1.141-1.297-.637-.812-.953-1.453-.953-1.922.07.012.148.016.234.016h.266c.707 0 1.566-.07 2.578-.219 1.008-.156 1.613-.3 1.812-.437zm-4.031-3.095c-.106.22-.469.805-1.094 1.75-.469.711-.715 1.079-.734 1.11.02.148.195 1.039.53 2.672.145.738.22 1.14.22 1.203-.7 0-1.246-.028-1.641-.078a26.758 26.758 0 00-1.188-.141c-.492.281-1.09.602-1.796.969-.243.113-.563.265-.97.453a27.007 27.007 0 01-.374-1.125 10.524 10.524 0 01-.235-1.047h.704c.937 0 1.625-.09 2.062-.266.707-.273 1.188-.808 1.438-1.609 0-.238-.149-.36-.438-.36-.625.094-1.258.173-1.89.235a19.51 19.51 0 01-1.938.094c-2.367 0-4.184-.758-5.453-2.281-1.094-1.32-1.64-3.004-1.64-5.047 0-2.008.488-3.625 1.468-4.844.812-1.008 1.926-1.738 3.344-2.188 1.062-.332 2.265-.5 3.61-.5.425 0 .765.016 1.015.047.25.024.535.055.86.094.226-.176.425-.32.593-.437a8.33 8.33 0 01.484-.313c.239.242.742.809 1.516 1.703a67.14 67.14 0 011.547 1.828c-.106.23-.477 1-1.11 2.313-.636 1.312-1 2.078-1.093 2.297zm2.218-4.671c0-.426-.187-.641-.562-.641-.324 0-.484.215-.484.64 0 .305.16.454.484.454.375 0 .562-.149.562-.453zm.235 7.687c0-.363-.168-.547-.5-.547-.375 0-.563.184-.563.547 0 .375.188.563.563.563.332 0 .5-.188.5-.563zm-6.203-5.375v-.812c.008-.301.02-.625.031-.97 0-.644-.094-1.054-.281-1.234-.18-.187-.625-.32-1.344-.406-.531-.062-1.008.172-1.422.703-.387.469-.578.965-.578 1.485 0 .406.191.855.578 1.343.445.575.953.86 1.516.86.383 0 .695-.055.937-.172.344-.164.531-.43.563-.797zm1.265 11.375c0-.398-.199-.594-.593-.594-.368 0-.547.196-.547.594 0 .32.18.484.547.484.394 0 .593-.164.593-.484zm0 0" fill="#ed7833"/></svg>