<svg width="27" height="27" viewBox="0 0 27 27" fill="none" xmlns="http://www.w3.org/2000/svg">
<path d="M13.0458 26.0985C11.9506 26.1014 10.8656 25.8872 9.85373 25.4681C8.84185 25.049 7.92312 24.4334 7.15072 23.6569L2.43765 18.943C0.876664 17.3785 0 15.2588 0 13.0488C0 10.8387 0.876664 8.719 2.43765 7.1545L7.15155 2.44144C8.71481 0.87821 10.835 0 13.0458 0C15.2566 0 17.3768 0.87821 18.94 2.44144L23.6539 7.1545C25.215 8.7191 26.0917 10.839 26.0917 13.0492C26.0917 15.2593 25.215 17.3792 23.6539 18.9438L18.94 23.6569C18.1678 24.4334 17.2492 25.049 16.2375 25.4681C15.2257 25.8872 14.1409 26.1015 13.0458 26.0985ZM12.7332 4.5679C12.3375 4.5592 11.9442 4.6308 11.577 4.7783C11.2098 4.9259 10.8763 5.1464 10.5967 5.4265C9.42056 6.5935 9.20382 8.6341 9.22883 10.1396C9.23967 10.7747 9.39555 16.4323 11.7504 19.4515C12.0906 19.898 12.501 20.2862 12.9658 20.601C13.5348 21.0052 14.2143 21.2246 14.9122 21.2295C15.1575 21.2281 15.4021 21.2047 15.6432 21.1595C15.6548 21.1577 15.6662 21.1552 15.6774 21.152C17.0428 20.8361 18.5316 19.5765 19.6603 17.7827C19.712 17.7008 19.747 17.6096 19.7632 17.5141C19.7794 17.4187 19.7764 17.3209 19.7544 17.2267C19.7221 17.0844 19.6483 16.9549 19.5423 16.8546C19.4363 16.7543 19.303 16.6876 19.1592 16.6631C19.0153 16.6386 18.8675 16.6572 18.7342 16.7167C18.601 16.7762 18.4884 16.8739 18.4107 16.9974C17.7416 18.229 16.6638 19.1885 15.3631 19.7107C15.216 19.7375 15.0668 19.7515 14.9172 19.7524C14.5063 19.7497 14.1071 19.6149 13.7785 19.3681C13.4476 19.142 13.1556 18.8636 12.9141 18.5437C11.2469 16.4014 10.7393 12.2368 10.7034 10.1137C10.6743 8.3915 11.0052 7.0987 11.6354 6.4718C11.7802 6.328 11.9531 6.2154 12.1432 6.1412C12.3334 6.0669 12.5367 6.0325 12.7407 6.04H12.8699C13.0735 6.0325 13.2765 6.067 13.4662 6.1412C13.6559 6.2155 13.8284 6.328 13.9727 6.4718C14.6029 7.0978 14.9339 8.389 14.9047 10.1137C14.9352 12.4306 14.3356 14.7123 13.17 16.7148C13.0739 16.8826 13.0475 17.0813 13.0964 17.2683C13.1453 17.4553 13.2657 17.6156 13.4316 17.7148C13.5975 17.8139 13.7957 17.844 13.9836 17.7986C14.1715 17.7531 14.334 17.6358 14.4362 17.4717C15.6921 15.2296 16.3597 12.706 16.3768 10.1362C16.4026 8.6308 16.1859 6.591 15.0089 5.4232C14.7287 5.1428 14.3945 4.9221 14.0265 4.7745C13.6586 4.6269 13.2646 4.5555 12.8682 4.5646L12.7332 4.5679ZM9.75482 19.5724H9.71564C9.50137 19.582 9.29934 19.675 9.15269 19.8315C9.00604 19.988 8.92639 20.1957 8.93074 20.4101C8.93509 20.6246 9.02311 20.8288 9.17598 20.9793C9.32886 21.1297 9.5345 21.2144 9.74899 21.2153H9.78316C9.99717 21.2059 10.199 21.1132 10.3457 20.9571C10.4925 20.801 10.5724 20.5938 10.5686 20.3796C10.5648 20.1654 10.4775 19.9612 10.3254 19.8104C10.1732 19.6596 9.96903 19.5742 9.75482 19.5724Z" fill="black"/>
</svg>
